  0
SECTION
  2
BLOCKS
  0
ENDSEC
  0
SECTION
  2
ENTITIES
  0
LINE
  8
0
 10
971.55
 20
19.05
 11
990.6
 21
19.05
  0
LINE
  8
0
 10
990.6
 20
19.05
 11
990.6
 21
0
  0
LINE
  8
0
 10
990.6
 20
0
 11
991.043
 21
0.00386047
  0
LINE
  8
0
 10
991.043
 20
0.00386047
 11
991.486
 21
0.0154724
  0
LINE
  8
0
 10
991.486
 20
0.0154724
 11
991.929
 21
0.0348053
  0
LINE
  8
0
 10
991.929
 20
0.0348053
 11
992.372
 21
0.0618591
  0
LINE
  8
0
 10
992.372
 20
0.0618591
 11
992.814
 21
0.0966492
  0
LINE
  8
0
 10
992.814
 20
0.0966492
 11
993.255
 21
0.13913
  0
LINE
  8
0
 10
993.255
 20
0.13913
 11
993.695
 21
0.189316
  0
LINE
  8
0
 10
993.695
 20
0.189316
 11
994.135
 21
0.247177
  0
LINE
  8
0
 10
994.135
 20
0.247177
 11
994.573
 21
0.312714
  0
LINE
  8
0
 10
994.573
 20
0.312714
 11
995.011
 21
0.38588
  0
LINE
  8
0
 10
995.011
 20
0.38588
 11
995.447
 21
0.46666
  0
LINE
  8
0
 10
995.447
 20
0.46666
 11
995.881
 21
0.555038
  0
LINE
  8
0
 10
995.881
 20
0.555038
 11
996.314
 21
0.650986
  0
LINE
  8
0
 10
996.314
 20
0.650986
 11
996.745
 21
0.754486
  0
LINE
  8
0
 10
996.745
 20
0.754486
 11
997.174
 21
0.865479
  0
LINE
  8
0
 10
997.174
 20
0.865479
 11
997.601
 21
0.983948
  0
LINE
  8
0
 10
997.601
 20
0.983948
 11
998.026
 21
1.10985
  0
LINE
  8
0
 10
998.026
 20
1.10985
 11
998.449
 21
1.24316
  0
LINE
  8
0
 10
998.449
 20
1.24316
 11
998.869
 21
1.38382
  0
LINE
  8
0
 10
998.869
 20
1.38382
 11
999.287
 21
1.5318
  0
LINE
  8
0
 10
999.287
 20
1.5318
 11
999.703
 21
1.68704
  0
LINE
  8
0
 10
999.703
 20
1.68704
 11
1000.11
 21
1.84952
  0
LINE
  8
0
 10
1000.11
 20
1.84952
 11
1000.52
 21
2.01917
  0
LINE
  8
0
 10
1000.52
 20
2.01917
 11
1000.93
 21
2.19594
  0
LINE
  8
0
 10
1000.93
 20
2.19594
 11
1001.33
 21
2.37978
  0
LINE
  8
0
 10
1001.33
 20
2.37978
 11
1001.73
 21
2.57062
  0
LINE
  8
0
 10
1001.73
 20
2.57062
 11
1002.13
 21
2.76843
  0
LINE
  8
0
 10
1002.13
 20
2.76843
 11
1002.52
 21
2.97313
  0
LINE
  8
0
 10
1002.52
 20
2.97313
 11
1002.91
 21
3.18465
  0
LINE
  8
0
 10
1002.91
 20
3.18465
 11
1003.3
 21
3.40295
  0
LINE
  8
0
 10
1003.3
 20
3.40295
 11
1003.68
 21
3.62794
  0
LINE
  8
0
 10
1003.68
 20
3.62794
 11
1004.06
 21
3.85957
  0
LINE
  8
0
 10
1004.06
 20
3.85957
 11
1004.43
 21
4.09776
  0
LINE
  8
0
 10
1004.43
 20
4.09776
 11
1004.8
 21
4.34244
  0
LINE
  8
0
 10
1004.8
 20
4.34244
 11
1005.17
 21
4.59354
  0
LINE
  8
0
 10
1005.17
 20
4.59354
 11
1005.53
 21
4.85097
  0
LINE
  8
0
 10
1005.53
 20
4.85097
 11
1005.89
 21
5.11465
  0
LINE
  8
0
 10
1005.89
 20
5.11465
 11
1006.24
 21
5.38452
  0
LINE
  8
0
 10
1006.24
 20
5.38452
 11
1006.58
 21
5.66049
  0
LINE
  8
0
 10
1006.58
 20
5.66049
 11
1006.93
 21
5.94246
  0
LINE
  8
0
 10
1006.93
 20
5.94246
 11
1007.26
 21
6.23036
  0
LINE
  8
0
 10
1007.26
 20
6.23036
 11
1007.6
 21
6.52411
  0
LINE
  8
0
 10
1007.6
 20
6.52411
 11
1007.92
 21
6.82361
  0
LINE
  8
0
 10
1007.92
 20
6.82361
 11
1008.24
 21
7.12877
  0
LINE
  8
0
 10
1008.24
 20
7.12877
 11
1008.56
 21
7.43948
  0
LINE
  8
0
 10
1008.56
 20
7.43948
 11
1008.87
 21
7.75568
  0
LINE
  8
0
 10
1008.87
 20
7.75568
 11
1009.18
 21
8.07724
  0
LINE
  8
0
 10
1009.18
 20
8.07724
 11
1009.48
 21
8.40407
  0
LINE
  8
0
 10
1009.48
 20
8.40407
 11
1009.77
 21
8.7361
  0
LINE
  8
0
 10
1009.77
 20
8.7361
 11
1010.06
 21
9.07318
  0
LINE
  8
0
 10
1010.06
 20
9.07318
 11
1010.34
 21
9.41525
  0
LINE
  8
0
 10
1010.34
 20
9.41525
 11
1010.62
 21
9.76219
  0
LINE
  8
0
 10
1010.62
 20
9.76219
 11
1010.89
 21
10.1139
  0
LINE
  8
0
 10
1010.89
 20
10.1139
 11
1011.15
 21
10.4702
  0
LINE
  8
0
 10
1011.15
 20
10.4702
 11
1011.41
 21
10.8311
  0
LINE
  8
0
 10
1011.41
 20
10.8311
 11
1011.66
 21
11.1965
  0
LINE
  8
0
 10
1011.66
 20
11.1965
 11
1011.9
 21
11.5662
  0
LINE
  8
0
 10
1011.9
 20
11.5662
 11
1012.14
 21
11.94
  0
LINE
  8
0
 10
1012.14
 20
11.94
 11
1012.37
 21
12.318
  0
LINE
  8
0
 10
1012.37
 20
12.318
 11
1012.6
 21
12.7
  0
LINE
  8
0
 10
1012.6
 20
12.7
 11
1012.82
 21
13.0858
  0
LINE
  8
0
 10
1012.82
 20
13.0858
 11
1013.03
 21
13.4754
  0
LINE
  8
0
 10
1013.03
 20
13.4754
 11
1013.23
 21
13.8686
  0
LINE
  8
0
 10
1013.23
 20
13.8686
 11
1013.43
 21
14.2654
  0
LINE
  8
0
 10
1013.43
 20
14.2654
 11
1013.62
 21
14.6655
  0
LINE
  8
0
 10
1013.62
 20
14.6655
 11
1013.8
 21
15.0689
  0
LINE
  8
0
 10
1013.8
 20
15.0689
 11
1013.98
 21
15.4754
  0
LINE
  8
0
 10
1013.98
 20
15.4754
 11
1014.15
 21
15.885
  0
LINE
  8
0
 10
1014.15
 20
15.885
 11
1014.31
 21
16.2975
  0
LINE
  8
0
 10
1014.31
 20
16.2975
 11
1014.47
 21
16.7127
  0
LINE
  8
0
 10
1014.47
 20
16.7127
 11
1014.62
 21
17.1306
  0
LINE
  8
0
 10
1014.62
 20
17.1306
 11
1014.76
 21
17.551
  0
LINE
  8
0
 10
1014.76
 20
17.551
 11
1014.89
 21
17.9738
  0
LINE
  8
0
 10
1014.89
 20
17.9738
 11
1015.02
 21
18.3988
  0
LINE
  8
0
 10
1015.02
 20
18.3988
 11
1015.13
 21
18.826
  0
LINE
  8
0
 10
1015.13
 20
18.826
 11
1015.25
 21
19.2552
  0
LINE
  8
0
 10
1015.25
 20
19.2552
 11
1015.35
 21
19.6862
  0
LINE
  8
0
 10
1015.35
 20
19.6862
 11
1015.44
 21
20.119
  0
LINE
  8
0
 10
1015.44
 20
20.119
 11
1015.53
 21
20.5535
  0
LINE
  8
0
 10
1015.53
 20
20.5535
 11
1015.61
 21
20.9893
  0
LINE
  8
0
 10
1015.61
 20
20.9893
 11
1015.69
 21
21.4266
  0
LINE
  8
0
 10
1015.69
 20
21.4266
 11
1015.75
 21
21.865
  0
LINE
  8
0
 10
1015.75
 20
21.865
 11
1015.81
 21
22.3045
  0
LINE
  8
0
 10
1015.81
 20
22.3045
 11
1015.86
 21
22.745
  0
LINE
  8
0
 10
1015.86
 20
22.745
 11
1015.9
 21
23.1862
  0
LINE
  8
0
 10
1015.9
 20
23.1862
 11
1015.94
 21
23.6282
  0
LINE
  8
0
 10
1015.94
 20
23.6282
 11
1015.97
 21
24.0707
  0
LINE
  8
0
 10
1015.97
 20
24.0707
 11
1015.98
 21
24.5135
  0
LINE
  8
0
 10
1015.98
 20
24.5135
 11
1016
 21
24.9567
  0
LINE
  8
0
 10
1016
 20
24.9567
 11
1016
 21
25.4
  0
LINE
  8
0
 10
1016
 20
25.4
 11
1016
 21
101.6
  0
LINE
  8
0
 10
1016
 20
101.6
 11
1016
 21
102.043
  0
LINE
  8
0
 10
1016
 20
102.043
 11
1015.98
 21
102.486
  0
LINE
  8
0
 10
1015.98
 20
102.486
 11
1015.97
 21
102.929
  0
LINE
  8
0
 10
1015.97
 20
102.929
 11
1015.94
 21
103.372
  0
LINE
  8
0
 10
1015.94
 20
103.372
 11
1015.9
 21
103.814
  0
LINE
  8
0
 10
1015.9
 20
103.814
 11
1015.86
 21
104.255
  0
LINE
  8
0
 10
1015.86
 20
104.255
 11
1015.81
 21
104.695
  0
LINE
  8
0
 10
1015.81
 20
104.695
 11
1015.75
 21
105.135
  0
LINE
  8
0
 10
1015.75
 20
105.135
 11
1015.69
 21
105.573
  0
LINE
  8
0
 10
1015.69
 20
105.573
 11
1015.61
 21
106.011
  0
LINE
  8
0
 10
1015.61
 20
106.011
 11
1015.53
 21
106.447
  0
LINE
  8
0
 10
1015.53
 20
106.447
 11
1015.44
 21
106.881
  0
LINE
  8
0
 10
1015.44
 20
106.881
 11
1015.35
 21
107.314
  0
LINE
  8
0
 10
1015.35
 20
107.314
 11
1015.25
 21
107.745
  0
LINE
  8
0
 10
1015.25
 20
107.745
 11
1015.13
 21
108.174
  0
LINE
  8
0
 10
1015.13
 20
108.174
 11
1015.02
 21
108.601
  0
LINE
  8
0
 10
1015.02
 20
108.601
 11
1014.89
 21
109.026
  0
LINE
  8
0
 10
1014.89
 20
109.026
 11
1014.76
 21
109.449
  0
LINE
  8
0
 10
1014.76
 20
109.449
 11
1014.62
 21
109.869
  0
LINE
  8
0
 10
1014.62
 20
109.869
 11
1014.47
 21
110.287
  0
LINE
  8
0
 10
1014.47
 20
110.287
 11
1014.31
 21
110.703
  0
LINE
  8
0
 10
1014.31
 20
110.703
 11
1014.15
 21
111.115
  0
LINE
  8
0
 10
1014.15
 20
111.115
 11
1013.98
 21
111.525
  0
LINE
  8
0
 10
1013.98
 20
111.525
 11
1013.8
 21
111.931
  0
LINE
  8
0
 10
1013.8
 20
111.931
 11
1013.62
 21
112.335
  0
LINE
  8
0
 10
1013.62
 20
112.335
 11
1013.43
 21
112.735
  0
LINE
  8
0
 10
1013.43
 20
112.735
 11
1013.23
 21
113.131
  0
LINE
  8
0
 10
1013.23
 20
113.131
 11
1013.03
 21
113.525
  0
LINE
  8
0
 10
1013.03
 20
113.525
 11
1012.82
 21
113.914
  0
LINE
  8
0
 10
1012.82
 20
113.914
 11
1012.6
 21
114.3
  0
LINE
  8
0
 10
1012.6
 20
114.3
 11
1012.37
 21
114.682
  0
LINE
  8
0
 10
1012.37
 20
114.682
 11
1012.14
 21
115.06
  0
LINE
  8
0
 10
1012.14
 20
115.06
 11
1011.9
 21
115.434
  0
LINE
  8
0
 10
1011.9
 20
115.434
 11
1011.66
 21
115.803
  0
LINE
  8
0
 10
1011.66
 20
115.803
 11
1011.41
 21
116.169
  0
LINE
  8
0
 10
1011.41
 20
116.169
 11
1011.15
 21
116.53
  0
LINE
  8
0
 10
1011.15
 20
116.53
 11
1010.89
 21
116.886
  0
LINE
  8
0
 10
1010.89
 20
116.886
 11
1010.62
 21
117.238
  0
LINE
  8
0
 10
1010.62
 20
117.238
 11
1010.34
 21
117.585
  0
LINE
  8
0
 10
1010.34
 20
117.585
 11
1010.06
 21
117.927
  0
LINE
  8
0
 10
1010.06
 20
117.927
 11
1009.77
 21
118.264
  0
LINE
  8
0
 10
1009.77
 20
118.264
 11
1009.48
 21
118.596
  0
LINE
  8
0
 10
1009.48
 20
118.596
 11
1009.18
 21
118.923
  0
LINE
  8
0
 10
1009.18
 20
118.923
 11
1008.87
 21
119.244
  0
LINE
  8
0
 10
1008.87
 20
119.244
 11
1008.56
 21
119.561
  0
LINE
  8
0
 10
1008.56
 20
119.561
 11
1008.24
 21
119.871
  0
LINE
  8
0
 10
1008.24
 20
119.871
 11
1007.92
 21
120.176
  0
LINE
  8
0
 10
1007.92
 20
120.176
 11
1007.6
 21
120.476
  0
LINE
  8
0
 10
1007.6
 20
120.476
 11
1007.26
 21
120.77
  0
LINE
  8
0
 10
1007.26
 20
120.77
 11
1006.93
 21
121.058
  0
LINE
  8
0
 10
1006.93
 20
121.058
 11
1006.58
 21
121.34
  0
LINE
  8
0
 10
1006.58
 20
121.34
 11
1006.24
 21
121.615
  0
LINE
  8
0
 10
1006.24
 20
121.615
 11
1005.89
 21
121.885
  0
LINE
  8
0
 10
1005.89
 20
121.885
 11
1005.53
 21
122.149
  0
LINE
  8
0
 10
1005.53
 20
122.149
 11
1005.17
 21
122.406
  0
LINE
  8
0
 10
1005.17
 20
122.406
 11
1004.8
 21
122.658
  0
LINE
  8
0
 10
1004.8
 20
122.658
 11
1004.43
 21
122.902
  0
LINE
  8
0
 10
1004.43
 20
122.902
 11
1004.06
 21
123.14
  0
LINE
  8
0
 10
1004.06
 20
123.14
 11
1003.68
 21
123.372
  0
LINE
  8
0
 10
1003.68
 20
123.372
 11
1003.3
 21
123.597
  0
LINE
  8
0
 10
1003.3
 20
123.597
 11
1002.91
 21
123.815
  0
LINE
  8
0
 10
1002.91
 20
123.815
 11
1002.52
 21
124.027
  0
LINE
  8
0
 10
1002.52
 20
124.027
 11
1002.13
 21
124.232
  0
LINE
  8
0
 10
1002.13
 20
124.232
 11
1001.73
 21
124.429
  0
LINE
  8
0
 10
1001.73
 20
124.429
 11
1001.33
 21
124.62
  0
LINE
  8
0
 10
1001.33
 20
124.62
 11
1000.93
 21
124.804
  0
LINE
  8
0
 10
1000.93
 20
124.804
 11
1000.52
 21
124.981
  0
LINE
  8
0
 10
1000.52
 20
124.981
 11
1000.11
 21
125.15
  0
LINE
  8
0
 10
1000.11
 20
125.15
 11
999.703
 21
125.313
  0
LINE
  8
0
 10
999.703
 20
125.313
 11
999.287
 21
125.468
  0
LINE
  8
0
 10
999.287
 20
125.468
 11
998.869
 21
125.616
  0
LINE
  8
0
 10
998.869
 20
125.616
 11
998.449
 21
125.757
  0
LINE
  8
0
 10
998.449
 20
125.757
 11
998.026
 21
125.89
  0
LINE
  8
0
 10
998.026
 20
125.89
 11
997.601
 21
126.016
  0
LINE
  8
0
 10
997.601
 20
126.016
 11
997.174
 21
126.135
  0
LINE
  8
0
 10
997.174
 20
126.135
 11
996.745
 21
126.246
  0
LINE
  8
0
 10
996.745
 20
126.246
 11
996.314
 21
126.349
  0
LINE
  8
0
 10
996.314
 20
126.349
 11
995.881
 21
126.445
  0
LINE
  8
0
 10
995.881
 20
126.445
 11
995.447
 21
126.533
  0
LINE
  8
0
 10
995.447
 20
126.533
 11
995.011
 21
126.614
  0
LINE
  8
0
 10
995.011
 20
126.614
 11
994.573
 21
126.687
  0
LINE
  8
0
 10
994.573
 20
126.687
 11
994.135
 21
126.753
  0
LINE
  8
0
 10
994.135
 20
126.753
 11
993.695
 21
126.811
  0
LINE
  8
0
 10
993.695
 20
126.811
 11
993.255
 21
126.861
  0
LINE
  8
0
 10
993.255
 20
126.861
 11
992.814
 21
126.903
  0
LINE
  8
0
 10
992.814
 20
126.903
 11
992.372
 21
126.938
  0
LINE
  8
0
 10
992.372
 20
126.938
 11
991.929
 21
126.965
  0
LINE
  8
0
 10
991.929
 20
126.965
 11
991.486
 21
126.985
  0
LINE
  8
0
 10
991.486
 20
126.985
 11
991.043
 21
126.996
  0
LINE
  8
0
 10
991.043
 20
126.996
 11
990.6
 21
127
  0
LINE
  8
0
 10
990.6
 20
127
 11
990.6
 21
107.95
  0
LINE
  8
0
 10
990.6
 20
107.95
 11
971.55
 21
107.95
  0
LINE
  8
0
 10
971.55
 20
107.95
 11
971.55
 21
127
  0
LINE
  8
0
 10
971.55
 20
127
 11
44.45
 21
127
  0
LINE
  8
0
 10
44.45
 20
127
 11
44.45
 21
107.95
  0
LINE
  8
0
 10
44.45
 20
107.95
 11
25.4
 21
107.95
  0
LINE
  8
0
 10
25.4
 20
107.95
 11
25.4
 21
127
  0
LINE
  8
0
 10
25.4
 20
127
 11
24.9567
 21
126.996
  0
LINE
  8
0
 10
24.9567
 20
126.996
 11
24.5135
 21
126.985
  0
LINE
  8
0
 10
24.5135
 20
126.985
 11
24.0707
 21
126.965
  0
LINE
  8
0
 10
24.0707
 20
126.965
 11
23.6282
 21
126.938
  0
LINE
  8
0
 10
23.6282
 20
126.938
 11
23.1862
 21
126.903
  0
LINE
  8
0
 10
23.1862
 20
126.903
 11
22.745
 21
126.861
  0
LINE
  8
0
 10
22.745
 20
126.861
 11
22.3045
 21
126.811
  0
LINE
  8
0
 10
22.3045
 20
126.811
 11
21.865
 21
126.753
  0
LINE
  8
0
 10
21.865
 20
126.753
 11
21.4266
 21
126.687
  0
LINE
  8
0
 10
21.4266
 20
126.687
 11
20.9893
 21
126.614
  0
LINE
  8
0
 10
20.9893
 20
126.614
 11
20.5535
 21
126.533
  0
LINE
  8
0
 10
20.5535
 20
126.533
 11
20.119
 21
126.445
  0
LINE
  8
0
 10
20.119
 20
126.445
 11
19.6862
 21
126.349
  0
LINE
  8
0
 10
19.6862
 20
126.349
 11
19.2552
 21
126.246
  0
LINE
  8
0
 10
19.2552
 20
126.246
 11
18.826
 21
126.135
  0
LINE
  8
0
 10
18.826
 20
126.135
 11
18.3988
 21
126.016
  0
LINE
  8
0
 10
18.3988
 20
126.016
 11
17.9738
 21
125.89
  0
LINE
  8
0
 10
17.9738
 20
125.89
 11
17.551
 21
125.757
  0
LINE
  8
0
 10
17.551
 20
125.757
 11
17.1306
 21
125.616
  0
LINE
  8
0
 10
17.1306
 20
125.616
 11
16.7127
 21
125.468
  0
LINE
  8
0
 10
16.7127
 20
125.468
 11
16.2975
 21
125.313
  0
LINE
  8
0
 10
16.2975
 20
125.313
 11
15.885
 21
125.15
  0
LINE
  8
0
 10
15.885
 20
125.15
 11
15.4754
 21
124.981
  0
LINE
  8
0
 10
15.4754
 20
124.981
 11
15.0689
 21
124.804
  0
LINE
  8
0
 10
15.0689
 20
124.804
 11
14.6655
 21
124.62
  0
LINE
  8
0
 10
14.6655
 20
124.62
 11
14.2654
 21
124.429
  0
LINE
  8
0
 10
14.2654
 20
124.429
 11
13.8686
 21
124.232
  0
LINE
  8
0
 10
13.8686
 20
124.232
 11
13.4754
 21
124.027
  0
LINE
  8
0
 10
13.4754
 20
124.027
 11
13.0858
 21
123.815
  0
LINE
  8
0
 10
13.0858
 20
123.815
 11
12.7
 21
123.597
  0
LINE
  8
0
 10
12.7
 20
123.597
 11
12.318
 21
123.372
  0
LINE
  8
0
 10
12.318
 20
123.372
 11
11.94
 21
123.14
  0
LINE
  8
0
 10
11.94
 20
123.14
 11
11.5662
 21
122.902
  0
LINE
  8
0
 10
11.5662
 20
122.902
 11
11.1965
 21
122.658
  0
LINE
  8
0
 10
11.1965
 20
122.658
 11
10.8311
 21
122.406
  0
LINE
  8
0
 10
10.8311
 20
122.406
 11
10.4702
 21
122.149
  0
LINE
  8
0
 10
10.4702
 20
122.149
 11
10.1139
 21
121.885
  0
LINE
  8
0
 10
10.1139
 20
121.885
 11
9.76219
 21
121.615
  0
LINE
  8
0
 10
9.76219
 20
121.615
 11
9.41525
 21
121.34
  0
LINE
  8
0
 10
9.41525
 20
121.34
 11
9.07318
 21
121.058
  0
LINE
  8
0
 10
9.07318
 20
121.058
 11
8.7361
 21
120.77
  0
LINE
  8
0
 10
8.7361
 20
120.77
 11
8.40407
 21
120.476
  0
LINE
  8
0
 10
8.40407
 20
120.476
 11
8.07724
 21
120.176
  0
LINE
  8
0
 10
8.07724
 20
120.176
 11
7.75568
 21
119.871
  0
LINE
  8
0
 10
7.75568
 20
119.871
 11
7.43948
 21
119.561
  0
LINE
  8
0
 10
7.43948
 20
119.561
 11
7.12877
 21
119.244
  0
LINE
  8
0
 10
7.12877
 20
119.244
 11
6.82361
 21
118.923
  0
LINE
  8
0
 10
6.82361
 20
118.923
 11
6.52411
 21
118.596
  0
LINE
  8
0
 10
6.52411
 20
118.596
 11
6.23036
 21
118.264
  0
LINE
  8
0
 10
6.23036
 20
118.264
 11
5.94246
 21
117.927
  0
LINE
  8
0
 10
5.94246
 20
117.927
 11
5.66049
 21
117.585
  0
LINE
  8
0
 10
5.66049
 20
117.585
 11
5.38452
 21
117.238
  0
LINE
  8
0
 10
5.38452
 20
117.238
 11
5.11465
 21
116.886
  0
LINE
  8
0
 10
5.11465
 20
116.886
 11
4.85097
 21
116.53
  0
LINE
  8
0
 10
4.85097
 20
116.53
 11
4.59354
 21
116.169
  0
LINE
  8
0
 10
4.59354
 20
116.169
 11
4.34244
 21
115.803
  0
LINE
  8
0
 10
4.34244
 20
115.803
 11
4.09776
 21
115.434
  0
LINE
  8
0
 10
4.09776
 20
115.434
 11
3.85957
 21
115.06
  0
LINE
  8
0
 10
3.85957
 20
115.06
 11
3.62794
 21
114.682
  0
LINE
  8
0
 10
3.62794
 20
114.682
 11
3.40295
 21
114.3
  0
LINE
  8
0
 10
3.40295
 20
114.3
 11
3.18465
 21
113.914
  0
LINE
  8
0
 10
3.18465
 20
113.914
 11
2.97313
 21
113.525
  0
LINE
  8
0
 10
2.97313
 20
113.525
 11
2.76843
 21
113.131
  0
LINE
  8
0
 10
2.76843
 20
113.131
 11
2.57062
 21
112.735
  0
LINE
  8
0
 10
2.57062
 20
112.735
 11
2.37978
 21
112.335
  0
LINE
  8
0
 10
2.37978
 20
112.335
 11
2.19594
 21
111.931
  0
LINE
  8
0
 10
2.19594
 20
111.931
 11
2.01917
 21
111.525
  0
LINE
  8
0
 10
2.01917
 20
111.525
 11
1.84952
 21
111.115
  0
LINE
  8
0
 10
1.84952
 20
111.115
 11
1.68704
 21
110.703
  0
LINE
  8
0
 10
1.68704
 20
110.703
 11
1.5318
 21
110.287
  0
LINE
  8
0
 10
1.5318
 20
110.287
 11
1.38382
 21
109.869
  0
LINE
  8
0
 10
1.38382
 20
109.869
 11
1.24316
 21
109.449
  0
LINE
  8
0
 10
1.24316
 20
109.449
 11
1.10985
 21
109.026
  0
LINE
  8
0
 10
1.10985
 20
109.026
 11
0.983948
 21
108.601
  0
LINE
  8
0
 10
0.983948
 20
108.601
 11
0.865479
 21
108.174
  0
LINE
  8
0
 10
0.865479
 20
108.174
 11
0.754486
 21
107.745
  0
LINE
  8
0
 10
0.754486
 20
107.745
 11
0.650986
 21
107.314
  0
LINE
  8
0
 10
0.650986
 20
107.314
 11
0.555038
 21
106.881
  0
LINE
  8
0
 10
0.555038
 20
106.881
 11
0.46666
 21
106.447
  0
LINE
  8
0
 10
0.46666
 20
106.447
 11
0.38588
 21
106.011
  0
LINE
  8
0
 10
0.38588
 20
106.011
 11
0.312714
 21
105.573
  0
LINE
  8
0
 10
0.312714
 20
105.573
 11
0.247177
 21
105.135
  0
LINE
  8
0
 10
0.247177
 20
105.135
 11
0.189316
 21
104.695
  0
LINE
  8
0
 10
0.189316
 20
104.695
 11
0.13913
 21
104.255
  0
LINE
  8
0
 10
0.13913
 20
104.255
 11
0.0966492
 21
103.814
  0
LINE
  8
0
 10
0.0966492
 20
103.814
 11
0.0618591
 21
103.372
  0
LINE
  8
0
 10
0.0618591
 20
103.372
 11
0.0348053
 21
102.929
  0
LINE
  8
0
 10
0.0348053
 20
102.929
 11
0.0154724
 21
102.486
  0
LINE
  8
0
 10
0.0154724
 20
102.486
 11
0.00386047
 21
102.043
  0
LINE
  8
0
 10
0.00386047
 20
102.043
 11
0
 21
101.6
  0
LINE
  8
0
 10
0
 20
101.6
 11
0
 21
25.4
  0
LINE
  8
0
 10
0
 20
25.4
 11
0.00386047
 21
24.9567
  0
LINE
  8
0
 10
0.00386047
 20
24.9567
 11
0.0154724
 21
24.5135
  0
LINE
  8
0
 10
0.0154724
 20
24.5135
 11
0.0348053
 21
24.0707
  0
LINE
  8
0
 10
0.0348053
 20
24.0707
 11
0.0618591
 21
23.6282
  0
LINE
  8
0
 10
0.0618591
 20
23.6282
 11
0.0966492
 21
23.1862
  0
LINE
  8
0
 10
0.0966492
 20
23.1862
 11
0.13913
 21
22.745
  0
LINE
  8
0
 10
0.13913
 20
22.745
 11
0.189316
 21
22.3045
  0
LINE
  8
0
 10
0.189316
 20
22.3045
 11
0.247177
 21
21.865
  0
LINE
  8
0
 10
0.247177
 20
21.865
 11
0.312714
 21
21.4266
  0
LINE
  8
0
 10
0.312714
 20
21.4266
 11
0.38588
 21
20.9893
  0
LINE
  8
0
 10
0.38588
 20
20.9893
 11
0.46666
 21
20.5535
  0
LINE
  8
0
 10
0.46666
 20
20.5535
 11
0.555038
 21
20.119
  0
LINE
  8
0
 10
0.555038
 20
20.119
 11
0.650986
 21
19.6862
  0
LINE
  8
0
 10
0.650986
 20
19.6862
 11
0.754486
 21
19.2552
  0
LINE
  8
0
 10
0.754486
 20
19.2552
 11
0.865479
 21
18.826
  0
LINE
  8
0
 10
0.865479
 20
18.826
 11
0.983948
 21
18.3988
  0
LINE
  8
0
 10
0.983948
 20
18.3988
 11
1.10985
 21
17.9738
  0
LINE
  8
0
 10
1.10985
 20
17.9738
 11
1.24316
 21
17.551
  0
LINE
  8
0
 10
1.24316
 20
17.551
 11
1.38382
 21
17.1306
  0
LINE
  8
0
 10
1.38382
 20
17.1306
 11
1.5318
 21
16.7127
  0
LINE
  8
0
 10
1.5318
 20
16.7127
 11
1.68704
 21
16.2975
  0
LINE
  8
0
 10
1.68704
 20
16.2975
 11
1.84952
 21
15.885
  0
LINE
  8
0
 10
1.84952
 20
15.885
 11
2.01917
 21
15.4754
  0
LINE
  8
0
 10
2.01917
 20
15.4754
 11
2.19594
 21
15.0689
  0
LINE
  8
0
 10
2.19594
 20
15.0689
 11
2.37978
 21
14.6655
  0
LINE
  8
0
 10
2.37978
 20
14.6655
 11
2.57062
 21
14.2654
  0
LINE
  8
0
 10
2.57062
 20
14.2654
 11
2.76843
 21
13.8686
  0
LINE
  8
0
 10
2.76843
 20
13.8686
 11
2.97313
 21
13.4754
  0
LINE
  8
0
 10
2.97313
 20
13.4754
 11
3.18465
 21
13.0858
  0
LINE
  8
0
 10
3.18465
 20
13.0858
 11
3.40295
 21
12.7
  0
LINE
  8
0
 10
3.40295
 20
12.7
 11
3.62794
 21
12.318
  0
LINE
  8
0
 10
3.62794
 20
12.318
 11
3.85957
 21
11.94
  0
LINE
  8
0
 10
3.85957
 20
11.94
 11
4.09776
 21
11.5662
  0
LINE
  8
0
 10
4.09776
 20
11.5662
 11
4.34244
 21
11.1965
  0
LINE
  8
0
 10
4.34244
 20
11.1965
 11
4.59354
 21
10.8311
  0
LINE
  8
0
 10
4.59354
 20
10.8311
 11
4.85097
 21
10.4702
  0
LINE
  8
0
 10
4.85097
 20
10.4702
 11
5.11465
 21
10.1139
  0
LINE
  8
0
 10
5.11465
 20
10.1139
 11
5.38452
 21
9.76219
  0
LINE
  8
0
 10
5.38452
 20
9.76219
 11
5.66049
 21
9.41525
  0
LINE
  8
0
 10
5.66049
 20
9.41525
 11
5.94246
 21
9.07318
  0
LINE
  8
0
 10
5.94246
 20
9.07318
 11
6.23036
 21
8.7361
  0
LINE
  8
0
 10
6.23036
 20
8.7361
 11
6.52411
 21
8.40407
  0
LINE
  8
0
 10
6.52411
 20
8.40407
 11
6.82361
 21
8.07724
  0
LINE
  8
0
 10
6.82361
 20
8.07724
 11
7.12877
 21
7.75568
  0
LINE
  8
0
 10
7.12877
 20
7.75568
 11
7.43948
 21
7.43948
  0
LINE
  8
0
 10
7.43948
 20
7.43948
 11
7.75568
 21
7.12877
  0
LINE
  8
0
 10
7.75568
 20
7.12877
 11
8.07724
 21
6.82361
  0
LINE
  8
0
 10
8.07724
 20
6.82361
 11
8.40407
 21
6.52411
  0
LINE
  8
0
 10
8.40407
 20
6.52411
 11
8.7361
 21
6.23036
  0
LINE
  8
0
 10
8.7361
 20
6.23036
 11
9.07318
 21
5.94246
  0
LINE
  8
0
 10
9.07318
 20
5.94246
 11
9.41525
 21
5.66049
  0
LINE
  8
0
 10
9.41525
 20
5.66049
 11
9.76219
 21
5.38452
  0
LINE
  8
0
 10
9.76219
 20
5.38452
 11
10.1139
 21
5.11465
  0
LINE
  8
0
 10
10.1139
 20
5.11465
 11
10.4702
 21
4.85097
  0
LINE
  8
0
 10
10.4702
 20
4.85097
 11
10.8311
 21
4.59354
  0
LINE
  8
0
 10
10.8311
 20
4.59354
 11
11.1965
 21
4.34244
  0
LINE
  8
0
 10
11.1965
 20
4.34244
 11
11.5662
 21
4.09776
  0
LINE
  8
0
 10
11.5662
 20
4.09776
 11
11.94
 21
3.85957
  0
LINE
  8
0
 10
11.94
 20
3.85957
 11
12.318
 21
3.62794
  0
LINE
  8
0
 10
12.318
 20
3.62794
 11
12.7
 21
3.40295
  0
LINE
  8
0
 10
12.7
 20
3.40295
 11
13.0858
 21
3.18465
  0
LINE
  8
0
 10
13.0858
 20
3.18465
 11
13.4754
 21
2.97313
  0
LINE
  8
0
 10
13.4754
 20
2.97313
 11
13.8686
 21
2.76843
  0
LINE
  8
0
 10
13.8686
 20
2.76843
 11
14.2654
 21
2.57062
  0
LINE
  8
0
 10
14.2654
 20
2.57062
 11
14.6655
 21
2.37978
  0
LINE
  8
0
 10
14.6655
 20
2.37978
 11
15.0689
 21
2.19594
  0
LINE
  8
0
 10
15.0689
 20
2.19594
 11
15.4754
 21
2.01917
  0
LINE
  8
0
 10
15.4754
 20
2.01917
 11
15.885
 21
1.84952
  0
LINE
  8
0
 10
15.885
 20
1.84952
 11
16.2975
 21
1.68704
  0
LINE
  8
0
 10
16.2975
 20
1.68704
 11
16.7127
 21
1.5318
  0
LINE
  8
0
 10
16.7127
 20
1.5318
 11
17.1306
 21
1.38382
  0
LINE
  8
0
 10
17.1306
 20
1.38382
 11
17.551
 21
1.24316
  0
LINE
  8
0
 10
17.551
 20
1.24316
 11
17.9738
 21
1.10985
  0
LINE
  8
0
 10
17.9738
 20
1.10985
 11
18.3988
 21
0.983948
  0
LINE
  8
0
 10
18.3988
 20
0.983948
 11
18.826
 21
0.865479
  0
LINE
  8
0
 10
18.826
 20
0.865479
 11
19.2552
 21
0.754486
  0
LINE
  8
0
 10
19.2552
 20
0.754486
 11
19.6862
 21
0.650986
  0
LINE
  8
0
 10
19.6862
 20
0.650986
 11
20.119
 21
0.555038
  0
LINE
  8
0
 10
20.119
 20
0.555038
 11
20.5535
 21
0.46666
  0
LINE
  8
0
 10
20.5535
 20
0.46666
 11
20.9893
 21
0.38588
  0
LINE
  8
0
 10
20.9893
 20
0.38588
 11
21.4266
 21
0.312714
  0
LINE
  8
0
 10
21.4266
 20
0.312714
 11
21.865
 21
0.247177
  0
LINE
  8
0
 10
21.865
 20
0.247177
 11
22.3045
 21
0.189316
  0
LINE
  8
0
 10
22.3045
 20
0.189316
 11
22.745
 21
0.13913
  0
LINE
  8
0
 10
22.745
 20
0.13913
 11
23.1862
 21
0.0966492
  0
LINE
  8
0
 10
23.1862
 20
0.0966492
 11
23.6282
 21
0.0618591
  0
LINE
  8
0
 10
23.6282
 20
0.0618591
 11
24.0707
 21
0.0348053
  0
LINE
  8
0
 10
24.0707
 20
0.0348053
 11
24.5135
 21
0.0154724
  0
LINE
  8
0
 10
24.5135
 20
0.0154724
 11
24.9567
 21
0.00386047
  0
LINE
  8
0
 10
24.9567
 20
0.00386047
 11
25.4
 21
0
  0
LINE
  8
0
 10
25.4
 20
0
 11
25.4
 21
19.05
  0
LINE
  8
0
 10
25.4
 20
19.05
 11
44.45
 21
19.05
  0
LINE
  8
0
 10
44.45
 20
19.05
 11
44.45
 21
0
  0
LINE
  8
0
 10
44.45
 20
0
 11
971.55
 21
0
  0
LINE
  8
0
 10
971.55
 20
0
 11
971.55
 21
19.05
  0
ENDSEC
  0
SECTION
  2
OBJECTS
  0
DICTIONARY
  0
ENDSEC
  0
EOF
