  0
SECTION
  2
BLOCKS
  0
ENDSEC
  0
SECTION
  2
ENTITIES
  0
LINE
  8
0
 10
558.8
 20
19.05
 11
685.8
 21
19.05
  0
LINE
  8
0
 10
685.8
 20
19.05
 11
685.8
 21
0
  0
LINE
  8
0
 10
685.8
 20
0
 11
711.2
 21
0
  0
LINE
  8
0
 10
711.2
 20
0
 11
711.2
 21
1
  0
LINE
  8
0
 10
711.2
 20
1
 11
504.279
 21
687.4
  0
LINE
  8
0
 10
504.279
 20
687.4
 11
503.928
 21
687.4
  0
LINE
  8
0
 10
503.928
 20
687.4
 11
503.818
 21
688.237
  0
LINE
  8
0
 10
503.818
 20
688.237
 11
503.524
 21
690.201
  0
LINE
  8
0
 10
503.524
 20
690.201
 11
503.197
 21
692.16
  0
LINE
  8
0
 10
503.197
 20
692.16
 11
502.835
 21
694.113
  0
LINE
  8
0
 10
502.835
 20
694.113
 11
502.439
 21
696.059
  0
LINE
  8
0
 10
502.439
 20
696.059
 11
502.009
 21
697.998
  0
LINE
  8
0
 10
502.009
 20
697.998
 11
501.545
 21
699.929
  0
LINE
  8
0
 10
501.545
 20
699.929
 11
501.048
 21
701.852
  0
LINE
  8
0
 10
501.048
 20
701.852
 11
500.517
 21
703.765
  0
LINE
  8
0
 10
500.517
 20
703.765
 11
499.953
 21
705.67
  0
LINE
  8
0
 10
499.953
 20
705.67
 11
499.356
 21
707.564
  0
LINE
  8
0
 10
499.356
 20
707.564
 11
498.726
 21
709.447
  0
LINE
  8
0
 10
498.726
 20
709.447
 11
498.063
 21
711.319
  0
LINE
  8
0
 10
498.063
 20
711.319
 11
497.367
 21
713.179
  0
LINE
  8
0
 10
497.367
 20
713.179
 11
496.639
 21
715.027
  0
LINE
  8
0
 10
496.639
 20
715.027
 11
495.879
 21
716.862
  0
LINE
  8
0
 10
495.879
 20
716.862
 11
495.087
 21
718.683
  0
LINE
  8
0
 10
495.087
 20
718.683
 11
494.264
 21
720.491
  0
LINE
  8
0
 10
494.264
 20
720.491
 11
493.409
 21
722.283
  0
LINE
  8
0
 10
493.409
 20
722.283
 11
492.523
 21
724.06
  0
LINE
  8
0
 10
492.523
 20
724.06
 11
491.606
 21
725.822
  0
LINE
  8
0
 10
491.606
 20
725.822
 11
490.658
 21
727.567
  0
LINE
  8
0
 10
490.658
 20
727.567
 11
489.68
 21
729.296
  0
LINE
  8
0
 10
489.68
 20
729.296
 11
488.672
 21
731.007
  0
LINE
  8
0
 10
488.672
 20
731.007
 11
487.634
 21
732.701
  0
LINE
  8
0
 10
487.634
 20
732.701
 11
486.567
 21
734.376
  0
LINE
  8
0
 10
486.567
 20
734.376
 11
485.471
 21
736.032
  0
LINE
  8
0
 10
485.471
 20
736.032
 11
484.346
 21
737.668
  0
LINE
  8
0
 10
484.346
 20
737.668
 11
483.193
 21
739.285
  0
LINE
  8
0
 10
483.193
 20
739.285
 11
482.012
 21
740.882
  0
LINE
  8
0
 10
482.012
 20
740.882
 11
480.803
 21
742.457
  0
LINE
  8
0
 10
480.803
 20
742.457
 11
479.566
 21
744.012
  0
LINE
  8
0
 10
479.566
 20
744.012
 11
478.303
 21
745.544
  0
LINE
  8
0
 10
478.303
 20
745.544
 11
477.013
 21
747.054
  0
LINE
  8
0
 10
477.013
 20
747.054
 11
475.697
 21
748.542
  0
LINE
  8
0
 10
475.697
 20
748.542
 11
474.356
 21
750.006
  0
LINE
  8
0
 10
474.356
 20
750.006
 11
472.988
 21
751.447
  0
LINE
  8
0
 10
472.988
 20
751.447
 11
471.596
 21
752.863
  0
LINE
  8
0
 10
471.596
 20
752.863
 11
470.18
 21
754.255
  0
LINE
  8
0
 10
470.18
 20
754.255
 11
468.739
 21
755.622
  0
LINE
  8
0
 10
468.739
 20
755.622
 11
467.275
 21
756.964
  0
LINE
  8
0
 10
467.275
 20
756.964
 11
465.788
 21
758.28
  0
LINE
  8
0
 10
465.788
 20
758.28
 11
464.277
 21
759.57
  0
LINE
  8
0
 10
464.277
 20
759.57
 11
462.745
 21
760.833
  0
LINE
  8
0
 10
462.745
 20
760.833
 11
461.191
 21
762.069
  0
LINE
  8
0
 10
461.191
 20
762.069
 11
459.615
 21
763.278
  0
LINE
  8
0
 10
459.615
 20
763.278
 11
458.019
 21
764.46
  0
LINE
  8
0
 10
458.019
 20
764.46
 11
456.402
 21
765.613
  0
LINE
  8
0
 10
456.402
 20
765.613
 11
454.765
 21
766.738
  0
LINE
  8
0
 10
454.765
 20
766.738
 11
453.109
 21
767.834
  0
LINE
  8
0
 10
453.109
 20
767.834
 11
451.434
 21
768.901
  0
LINE
  8
0
 10
451.434
 20
768.901
 11
449.741
 21
769.939
  0
LINE
  8
0
 10
449.741
 20
769.939
 11
448.029
 21
770.947
  0
LINE
  8
0
 10
448.029
 20
770.947
 11
446.301
 21
771.925
  0
LINE
  8
0
 10
446.301
 20
771.925
 11
444.555
 21
772.872
  0
LINE
  8
0
 10
444.555
 20
772.872
 11
442.794
 21
773.789
  0
LINE
  8
0
 10
442.794
 20
773.789
 11
441.016
 21
774.676
  0
LINE
  8
0
 10
441.016
 20
774.676
 11
439.224
 21
775.531
  0
LINE
  8
0
 10
439.224
 20
775.531
 11
437.417
 21
776.354
  0
LINE
  8
0
 10
437.417
 20
776.354
 11
435.595
 21
777.146
  0
LINE
  8
0
 10
435.595
 20
777.146
 11
433.761
 21
777.906
  0
LINE
  8
0
 10
433.761
 20
777.906
 11
431.913
 21
778.634
  0
LINE
  8
0
 10
431.913
 20
778.634
 11
430.052
 21
779.33
  0
LINE
  8
0
 10
430.052
 20
779.33
 11
428.18
 21
779.992
  0
LINE
  8
0
 10
428.18
 20
779.992
 11
426.297
 21
780.623
  0
LINE
  8
0
 10
426.297
 20
780.623
 11
424.403
 21
781.22
  0
LINE
  8
0
 10
424.403
 20
781.22
 11
422.499
 21
781.784
  0
LINE
  8
0
 10
422.499
 20
781.784
 11
420.585
 21
782.315
  0
LINE
  8
0
 10
420.585
 20
782.315
 11
418.662
 21
782.812
  0
LINE
  8
0
 10
418.662
 20
782.812
 11
416.731
 21
783.276
  0
LINE
  8
0
 10
416.731
 20
783.276
 11
414.792
 21
783.705
  0
LINE
  8
0
 10
414.792
 20
783.705
 11
412.846
 21
784.101
  0
LINE
  8
0
 10
412.846
 20
784.101
 11
410.893
 21
784.463
  0
LINE
  8
0
 10
410.893
 20
784.463
 11
408.934
 21
784.791
  0
LINE
  8
0
 10
408.934
 20
784.791
 11
406.97
 21
785.085
  0
LINE
  8
0
 10
406.97
 20
785.085
 11
405.001
 21
785.344
  0
LINE
  8
0
 10
405.001
 20
785.344
 11
403.028
 21
785.569
  0
LINE
  8
0
 10
403.028
 20
785.569
 11
401.051
 21
785.759
  0
LINE
  8
0
 10
401.051
 20
785.759
 11
399.071
 21
785.915
  0
LINE
  8
0
 10
399.071
 20
785.915
 11
397.089
 21
786.036
  0
LINE
  8
0
 10
397.089
 20
786.036
 11
395.105
 21
786.123
  0
LINE
  8
0
 10
395.105
 20
786.123
 11
394.133
 21
786.148
  0
LINE
  8
0
 10
394.133
 20
786.148
 11
394.133
 21
787.4
  0
LINE
  8
0
 10
394.133
 20
787.4
 11
0
 21
787.4
  0
LINE
  8
0
 10
0
 20
787.4
 11
0
 21
0
  0
LINE
  8
0
 10
0
 20
0
 11
558.8
 21
0
  0
LINE
  8
0
 10
558.8
 20
0
 11
558.8
 21
19.05
  0
LINE
  8
0
 10
347.133
 20
50.8
 11
347.133
 21
76.2
  0
LINE
  8
0
 10
347.133
 20
76.2
 11
405.553
 21
134.62
  0
LINE
  8
0
 10
405.553
 20
134.62
 11
405.553
 21
160.02
  0
LINE
  8
0
 10
405.553
 20
160.02
 11
397.933
 21
152.4
  0
LINE
  8
0
 10
397.933
 20
152.4
 11
347.133
 21
152.4
  0
LINE
  8
0
 10
347.133
 20
152.4
 11
347.133
 21
177.8
  0
LINE
  8
0
 10
347.133
 20
177.8
 11
405.553
 21
236.22
  0
LINE
  8
0
 10
405.553
 20
236.22
 11
405.553
 21
261.62
  0
LINE
  8
0
 10
405.553
 20
261.62
 11
397.933
 21
254
  0
LINE
  8
0
 10
397.933
 20
254
 11
347.133
 21
254
  0
LINE
  8
0
 10
347.133
 20
254
 11
347.133
 21
279.4
  0
LINE
  8
0
 10
347.133
 20
279.4
 11
405.553
 21
337.82
  0
LINE
  8
0
 10
405.553
 20
337.82
 11
405.553
 21
363.22
  0
LINE
  8
0
 10
405.553
 20
363.22
 11
397.933
 21
355.6
  0
LINE
  8
0
 10
397.933
 20
355.6
 11
347.133
 21
355.6
  0
LINE
  8
0
 10
347.133
 20
355.6
 11
347.133
 21
381
  0
LINE
  8
0
 10
347.133
 20
381
 11
405.553
 21
439.42
  0
LINE
  8
0
 10
405.553
 20
439.42
 11
405.553
 21
464.82
  0
LINE
  8
0
 10
405.553
 20
464.82
 11
397.933
 21
457.2
  0
LINE
  8
0
 10
397.933
 20
457.2
 11
347.133
 21
457.2
  0
LINE
  8
0
 10
347.133
 20
457.2
 11
347.133
 21
482.6
  0
LINE
  8
0
 10
347.133
 20
482.6
 11
405.553
 21
541.02
  0
LINE
  8
0
 10
405.553
 20
541.02
 11
405.553
 21
566.42
  0
LINE
  8
0
 10
405.553
 20
566.42
 11
397.933
 21
558.8
  0
LINE
  8
0
 10
397.933
 20
558.8
 11
347.133
 21
558.8
  0
LINE
  8
0
 10
347.133
 20
558.8
 11
347.133
 21
584.2
  0
LINE
  8
0
 10
347.133
 20
584.2
 11
405.553
 21
642.62
  0
LINE
  8
0
 10
405.553
 20
642.62
 11
405.553
 21
668.02
  0
LINE
  8
0
 10
405.553
 20
668.02
 11
397.933
 21
660.4
  0
LINE
  8
0
 10
397.933
 20
660.4
 11
347.133
 21
660.4
  0
LINE
  8
0
 10
347.133
 20
660.4
 11
347.133
 21
685.8
  0
LINE
  8
0
 10
347.133
 20
685.8
 11
405.553
 21
744.22
  0
LINE
  8
0
 10
405.553
 20
744.22
 11
456.353
 21
744.22
  0
LINE
  8
0
 10
456.353
 20
744.22
 11
456.353
 21
109.22
  0
LINE
  8
0
 10
456.353
 20
109.22
 11
397.933
 21
50.8
  0
LINE
  8
0
 10
397.933
 20
50.8
 11
347.133
 21
50.8
  0
LINE
  8
0
 10
57.15
 20
50.8
 11
57.15
 21
76.2
  0
LINE
  8
0
 10
57.15
 20
76.2
 11
115.57
 21
134.62
  0
LINE
  8
0
 10
115.57
 20
134.62
 11
115.57
 21
160.02
  0
LINE
  8
0
 10
115.57
 20
160.02
 11
107.95
 21
152.4
  0
LINE
  8
0
 10
107.95
 20
152.4
 11
57.15
 21
152.4
  0
LINE
  8
0
 10
57.15
 20
152.4
 11
57.15
 21
177.8
  0
LINE
  8
0
 10
57.15
 20
177.8
 11
115.57
 21
236.22
  0
LINE
  8
0
 10
115.57
 20
236.22
 11
115.57
 21
261.62
  0
LINE
  8
0
 10
115.57
 20
261.62
 11
107.95
 21
254
  0
LINE
  8
0
 10
107.95
 20
254
 11
57.15
 21
254
  0
LINE
  8
0
 10
57.15
 20
254
 11
57.15
 21
279.4
  0
LINE
  8
0
 10
57.15
 20
279.4
 11
115.57
 21
337.82
  0
LINE
  8
0
 10
115.57
 20
337.82
 11
115.57
 21
363.22
  0
LINE
  8
0
 10
115.57
 20
363.22
 11
107.95
 21
355.6
  0
LINE
  8
0
 10
107.95
 20
355.6
 11
57.15
 21
355.6
  0
LINE
  8
0
 10
57.15
 20
355.6
 11
57.15
 21
381
  0
LINE
  8
0
 10
57.15
 20
381
 11
115.57
 21
439.42
  0
LINE
  8
0
 10
115.57
 20
439.42
 11
115.57
 21
464.82
  0
LINE
  8
0
 10
115.57
 20
464.82
 11
107.95
 21
457.2
  0
LINE
  8
0
 10
107.95
 20
457.2
 11
57.15
 21
457.2
  0
LINE
  8
0
 10
57.15
 20
457.2
 11
57.15
 21
482.6
  0
LINE
  8
0
 10
57.15
 20
482.6
 11
115.57
 21
541.02
  0
LINE
  8
0
 10
115.57
 20
541.02
 11
115.57
 21
566.42
  0
LINE
  8
0
 10
115.57
 20
566.42
 11
107.95
 21
558.8
  0
LINE
  8
0
 10
107.95
 20
558.8
 11
57.15
 21
558.8
  0
LINE
  8
0
 10
57.15
 20
558.8
 11
57.15
 21
584.2
  0
LINE
  8
0
 10
57.15
 20
584.2
 11
115.57
 21
642.62
  0
LINE
  8
0
 10
115.57
 20
642.62
 11
115.57
 21
668.02
  0
LINE
  8
0
 10
115.57
 20
668.02
 11
107.95
 21
660.4
  0
LINE
  8
0
 10
107.95
 20
660.4
 11
57.15
 21
660.4
  0
LINE
  8
0
 10
57.15
 20
660.4
 11
57.15
 21
685.8
  0
LINE
  8
0
 10
57.15
 20
685.8
 11
115.57
 21
744.22
  0
LINE
  8
0
 10
115.57
 20
744.22
 11
166.37
 21
744.22
  0
LINE
  8
0
 10
166.37
 20
744.22
 11
166.37
 21
109.22
  0
LINE
  8
0
 10
166.37
 20
109.22
 11
107.95
 21
50.8
  0
LINE
  8
0
 10
107.95
 20
50.8
 11
57.15
 21
50.8
  0
LINE
  8
0
 10
19.05
 20
678.18
 11
19.05
 21
741.68
  0
LINE
  8
0
 10
19.05
 20
741.68
 11
38.1
 21
741.68
  0
LINE
  8
0
 10
38.1
 20
741.68
 11
38.1
 21
678.18
  0
LINE
  8
0
 10
38.1
 20
678.18
 11
19.05
 21
678.18
  0
LINE
  8
0
 10
215.9
 20
50.8
 11
215.678
 21
50.8019
  0
LINE
  8
0
 10
215.678
 20
50.8019
 11
215.457
 21
50.8077
  0
LINE
  8
0
 10
215.457
 20
50.8077
 11
215.235
 21
50.8174
  0
LINE
  8
0
 10
215.235
 20
50.8174
 11
215.014
 21
50.8309
  0
LINE
  8
0
 10
215.014
 20
50.8309
 11
214.793
 21
50.8483
  0
LINE
  8
0
 10
214.793
 20
50.8483
 11
214.572
 21
50.8696
  0
LINE
  8
0
 10
214.572
 20
50.8696
 11
214.352
 21
50.8947
  0
LINE
  8
0
 10
214.352
 20
50.8947
 11
214.133
 21
50.9236
  0
LINE
  8
0
 10
214.133
 20
50.9236
 11
213.913
 21
50.9564
  0
LINE
  8
0
 10
213.913
 20
50.9564
 11
213.695
 21
50.9929
  0
LINE
  8
0
 10
213.695
 20
50.9929
 11
213.477
 21
51.0333
  0
LINE
  8
0
 10
213.477
 20
51.0333
 11
213.26
 21
51.0775
  0
LINE
  8
0
 10
213.26
 20
51.0775
 11
213.043
 21
51.1255
  0
LINE
  8
0
 10
213.043
 20
51.1255
 11
212.828
 21
51.1772
  0
LINE
  8
0
 10
212.828
 20
51.1772
 11
212.613
 21
51.2327
  0
LINE
  8
0
 10
212.613
 20
51.2327
 11
212.399
 21
51.292
  0
LINE
  8
0
 10
212.399
 20
51.292
 11
212.187
 21
51.3549
  0
LINE
  8
0
 10
212.187
 20
51.3549
 11
211.975
 21
51.4216
  0
LINE
  8
0
 10
211.975
 20
51.4216
 11
211.765
 21
51.4919
  0
LINE
  8
0
 10
211.765
 20
51.4919
 11
211.556
 21
51.5659
  0
LINE
  8
0
 10
211.556
 20
51.5659
 11
211.349
 21
51.6435
  0
LINE
  8
0
 10
211.349
 20
51.6435
 11
211.143
 21
51.7248
  0
LINE
  8
0
 10
211.143
 20
51.7248
 11
210.938
 21
51.8096
  0
LINE
  8
0
 10
210.938
 20
51.8096
 11
210.734
 21
51.898
  0
LINE
  8
0
 10
210.734
 20
51.898
 11
210.533
 21
51.9899
  0
LINE
  8
0
 10
210.533
 20
51.9899
 11
210.333
 21
52.0853
  0
LINE
  8
0
 10
210.333
 20
52.0853
 11
210.134
 21
52.1842
  0
LINE
  8
0
 10
210.134
 20
52.1842
 11
209.938
 21
52.2866
  0
LINE
  8
0
 10
209.938
 20
52.2866
 11
209.743
 21
52.3923
  0
LINE
  8
0
 10
209.743
 20
52.3923
 11
209.55
 21
52.5015
  0
LINE
  8
0
 10
209.55
 20
52.5015
 11
209.359
 21
52.614
  0
LINE
  8
0
 10
209.359
 20
52.614
 11
209.17
 21
52.7298
  0
LINE
  8
0
 10
209.17
 20
52.7298
 11
208.983
 21
52.8489
  0
LINE
  8
0
 10
208.983
 20
52.8489
 11
208.798
 21
52.9712
  0
LINE
  8
0
 10
208.798
 20
52.9712
 11
208.616
 21
53.0968
  0
LINE
  8
0
 10
208.616
 20
53.0968
 11
208.435
 21
53.2255
  0
LINE
  8
0
 10
208.435
 20
53.2255
 11
208.257
 21
53.3573
  0
LINE
  8
0
 10
208.257
 20
53.3573
 11
208.081
 21
53.4923
  0
LINE
  8
0
 10
208.081
 20
53.4923
 11
207.908
 21
53.6302
  0
LINE
  8
0
 10
207.908
 20
53.6302
 11
207.737
 21
53.7712
  0
LINE
  8
0
 10
207.737
 20
53.7712
 11
207.568
 21
53.9152
  0
LINE
  8
0
 10
207.568
 20
53.9152
 11
207.402
 21
54.0621
  0
LINE
  8
0
 10
207.402
 20
54.0621
 11
207.239
 21
54.2118
  0
LINE
  8
0
 10
207.239
 20
54.2118
 11
207.078
 21
54.3644
  0
LINE
  8
0
 10
207.078
 20
54.3644
 11
206.92
 21
54.5197
  0
LINE
  8
0
 10
206.92
 20
54.5197
 11
206.764
 21
54.6778
  0
LINE
  8
0
 10
206.764
 20
54.6778
 11
206.612
 21
54.8386
  0
LINE
  8
0
 10
206.612
 20
54.8386
 11
206.462
 21
55.002
  0
LINE
  8
0
 10
206.462
 20
55.002
 11
206.315
 21
55.168
  0
LINE
  8
0
 10
206.315
 20
55.168
 11
206.171
 21
55.3366
  0
LINE
  8
0
 10
206.171
 20
55.3366
 11
206.03
 21
55.5076
  0
LINE
  8
0
 10
206.03
 20
55.5076
 11
205.892
 21
55.6811
  0
LINE
  8
0
 10
205.892
 20
55.6811
 11
205.757
 21
55.8569
  0
LINE
  8
0
 10
205.757
 20
55.8569
 11
205.625
 21
56.0351
  0
LINE
  8
0
 10
205.625
 20
56.0351
 11
205.497
 21
56.2156
  0
LINE
  8
0
 10
205.497
 20
56.2156
 11
205.371
 21
56.3982
  0
LINE
  8
0
 10
205.371
 20
56.3982
 11
205.249
 21
56.5831
  0
LINE
  8
0
 10
205.249
 20
56.5831
 11
205.13
 21
56.77
  0
LINE
  8
0
 10
205.13
 20
56.77
 11
205.014
 21
56.959
  0
LINE
  8
0
 10
205.014
 20
56.959
 11
204.901
 21
57.15
  0
LINE
  8
0
 10
204.901
 20
57.15
 11
204.792
 21
57.3429
  0
LINE
  8
0
 10
204.792
 20
57.3429
 11
204.687
 21
57.5377
  0
LINE
  8
0
 10
204.687
 20
57.5377
 11
204.584
 21
57.7343
  0
LINE
  8
0
 10
204.584
 20
57.7343
 11
204.485
 21
57.9327
  0
LINE
  8
0
 10
204.485
 20
57.9327
 11
204.39
 21
58.1327
  0
LINE
  8
0
 10
204.39
 20
58.1327
 11
204.298
 21
58.3344
  0
LINE
  8
0
 10
204.298
 20
58.3344
 11
204.21
 21
58.5377
  0
LINE
  8
0
 10
204.21
 20
58.5377
 11
204.125
 21
58.7425
  0
LINE
  8
0
 10
204.125
 20
58.7425
 11
204.044
 21
58.9487
  0
LINE
  8
0
 10
204.044
 20
58.9487
 11
203.966
 21
59.1563
  0
LINE
  8
0
 10
203.966
 20
59.1563
 11
203.892
 21
59.3653
  0
LINE
  8
0
 10
203.892
 20
59.3653
 11
203.822
 21
59.5755
  0
LINE
  8
0
 10
203.822
 20
59.5755
 11
203.755
 21
59.7869
  0
LINE
  8
0
 10
203.755
 20
59.7869
 11
203.692
 21
59.9994
  0
LINE
  8
0
 10
203.692
 20
59.9994
 11
203.633
 21
60.213
  0
LINE
  8
0
 10
203.633
 20
60.213
 11
203.577
 21
60.4276
  0
LINE
  8
0
 10
203.577
 20
60.4276
 11
203.525
 21
60.6431
  0
LINE
  8
0
 10
203.525
 20
60.6431
 11
203.478
 21
60.8595
  0
LINE
  8
0
 10
203.478
 20
60.8595
 11
203.433
 21
61.0767
  0
LINE
  8
0
 10
203.433
 20
61.0767
 11
203.393
 21
61.2947
  0
LINE
  8
0
 10
203.393
 20
61.2947
 11
203.356
 21
61.5133
  0
LINE
  8
0
 10
203.356
 20
61.5133
 11
203.324
 21
61.7325
  0
LINE
  8
0
 10
203.324
 20
61.7325
 11
203.295
 21
61.9523
  0
LINE
  8
0
 10
203.295
 20
61.9523
 11
203.27
 21
62.1725
  0
LINE
  8
0
 10
203.27
 20
62.1725
 11
203.248
 21
62.3931
  0
LINE
  8
0
 10
203.248
 20
62.3931
 11
203.231
 21
62.6141
  0
LINE
  8
0
 10
203.231
 20
62.6141
 11
203.217
 21
62.8353
  0
LINE
  8
0
 10
203.217
 20
62.8353
 11
203.208
 21
63.0568
  0
LINE
  8
0
 10
203.208
 20
63.0568
 11
203.202
 21
63.2784
  0
LINE
  8
0
 10
203.202
 20
63.2784
 11
203.2
 21
63.5
  0
LINE
  8
0
 10
203.2
 20
63.5
 11
203.2
 21
723.9
  0
LINE
  8
0
 10
203.2
 20
723.9
 11
203.202
 21
724.122
  0
LINE
  8
0
 10
203.202
 20
724.122
 11
203.208
 21
724.343
  0
LINE
  8
0
 10
203.208
 20
724.343
 11
203.217
 21
724.565
  0
LINE
  8
0
 10
203.217
 20
724.565
 11
203.231
 21
724.786
  0
LINE
  8
0
 10
203.231
 20
724.786
 11
203.248
 21
725.007
  0
LINE
  8
0
 10
203.248
 20
725.007
 11
203.27
 21
725.228
  0
LINE
  8
0
 10
203.27
 20
725.228
 11
203.295
 21
725.448
  0
LINE
  8
0
 10
203.295
 20
725.448
 11
203.324
 21
725.667
  0
LINE
  8
0
 10
203.324
 20
725.667
 11
203.356
 21
725.887
  0
LINE
  8
0
 10
203.356
 20
725.887
 11
203.393
 21
726.105
  0
LINE
  8
0
 10
203.393
 20
726.105
 11
203.433
 21
726.323
  0
LINE
  8
0
 10
203.433
 20
726.323
 11
203.478
 21
726.54
  0
LINE
  8
0
 10
203.478
 20
726.54
 11
203.525
 21
726.757
  0
LINE
  8
0
 10
203.525
 20
726.757
 11
203.577
 21
726.972
  0
LINE
  8
0
 10
203.577
 20
726.972
 11
203.633
 21
727.187
  0
LINE
  8
0
 10
203.633
 20
727.187
 11
203.692
 21
727.401
  0
LINE
  8
0
 10
203.692
 20
727.401
 11
203.755
 21
727.613
  0
LINE
  8
0
 10
203.755
 20
727.613
 11
203.822
 21
727.825
  0
LINE
  8
0
 10
203.822
 20
727.825
 11
203.892
 21
728.035
  0
LINE
  8
0
 10
203.892
 20
728.035
 11
203.966
 21
728.244
  0
LINE
  8
0
 10
203.966
 20
728.244
 11
204.044
 21
728.451
  0
LINE
  8
0
 10
204.044
 20
728.451
 11
204.125
 21
728.658
  0
LINE
  8
0
 10
204.125
 20
728.658
 11
204.21
 21
728.862
  0
LINE
  8
0
 10
204.21
 20
728.862
 11
204.298
 21
729.066
  0
LINE
  8
0
 10
204.298
 20
729.066
 11
204.39
 21
729.267
  0
LINE
  8
0
 10
204.39
 20
729.267
 11
204.485
 21
729.467
  0
LINE
  8
0
 10
204.485
 20
729.467
 11
204.584
 21
729.666
  0
LINE
  8
0
 10
204.584
 20
729.666
 11
204.687
 21
729.862
  0
LINE
  8
0
 10
204.687
 20
729.862
 11
204.792
 21
730.057
  0
LINE
  8
0
 10
204.792
 20
730.057
 11
204.901
 21
730.25
  0
LINE
  8
0
 10
204.901
 20
730.25
 11
205.014
 21
730.441
  0
LINE
  8
0
 10
205.014
 20
730.441
 11
205.13
 21
730.63
  0
LINE
  8
0
 10
205.13
 20
730.63
 11
205.249
 21
730.817
  0
LINE
  8
0
 10
205.249
 20
730.817
 11
205.371
 21
731.002
  0
LINE
  8
0
 10
205.371
 20
731.002
 11
205.497
 21
731.184
  0
LINE
  8
0
 10
205.497
 20
731.184
 11
205.625
 21
731.365
  0
LINE
  8
0
 10
205.625
 20
731.365
 11
205.757
 21
731.543
  0
LINE
  8
0
 10
205.757
 20
731.543
 11
205.892
 21
731.719
  0
LINE
  8
0
 10
205.892
 20
731.719
 11
206.03
 21
731.892
  0
LINE
  8
0
 10
206.03
 20
731.892
 11
206.171
 21
732.063
  0
LINE
  8
0
 10
206.171
 20
732.063
 11
206.315
 21
732.232
  0
LINE
  8
0
 10
206.315
 20
732.232
 11
206.462
 21
732.398
  0
LINE
  8
0
 10
206.462
 20
732.398
 11
206.612
 21
732.561
  0
LINE
  8
0
 10
206.612
 20
732.561
 11
206.764
 21
732.722
  0
LINE
  8
0
 10
206.764
 20
732.722
 11
206.92
 21
732.88
  0
LINE
  8
0
 10
206.92
 20
732.88
 11
207.078
 21
733.036
  0
LINE
  8
0
 10
207.078
 20
733.036
 11
207.239
 21
733.188
  0
LINE
  8
0
 10
207.239
 20
733.188
 11
207.402
 21
733.338
  0
LINE
  8
0
 10
207.402
 20
733.338
 11
207.568
 21
733.485
  0
LINE
  8
0
 10
207.568
 20
733.485
 11
207.737
 21
733.629
  0
LINE
  8
0
 10
207.737
 20
733.629
 11
207.908
 21
733.77
  0
LINE
  8
0
 10
207.908
 20
733.77
 11
208.081
 21
733.908
  0
LINE
  8
0
 10
208.081
 20
733.908
 11
208.257
 21
734.043
  0
LINE
  8
0
 10
208.257
 20
734.043
 11
208.435
 21
734.174
  0
LINE
  8
0
 10
208.435
 20
734.174
 11
208.616
 21
734.303
  0
LINE
  8
0
 10
208.616
 20
734.303
 11
208.798
 21
734.429
  0
LINE
  8
0
 10
208.798
 20
734.429
 11
208.983
 21
734.551
  0
LINE
  8
0
 10
208.983
 20
734.551
 11
209.17
 21
734.67
  0
LINE
  8
0
 10
209.17
 20
734.67
 11
209.359
 21
734.786
  0
LINE
  8
0
 10
209.359
 20
734.786
 11
209.55
 21
734.898
  0
LINE
  8
0
 10
209.55
 20
734.898
 11
209.743
 21
735.008
  0
LINE
  8
0
 10
209.743
 20
735.008
 11
209.938
 21
735.113
  0
LINE
  8
0
 10
209.938
 20
735.113
 11
210.134
 21
735.216
  0
LINE
  8
0
 10
210.134
 20
735.216
 11
210.333
 21
735.315
  0
LINE
  8
0
 10
210.333
 20
735.315
 11
210.533
 21
735.41
  0
LINE
  8
0
 10
210.533
 20
735.41
 11
210.734
 21
735.502
  0
LINE
  8
0
 10
210.734
 20
735.502
 11
210.938
 21
735.59
  0
LINE
  8
0
 10
210.938
 20
735.59
 11
211.143
 21
735.675
  0
LINE
  8
0
 10
211.143
 20
735.675
 11
211.349
 21
735.756
  0
LINE
  8
0
 10
211.349
 20
735.756
 11
211.556
 21
735.834
  0
LINE
  8
0
 10
211.556
 20
735.834
 11
211.765
 21
735.908
  0
LINE
  8
0
 10
211.765
 20
735.908
 11
211.975
 21
735.978
  0
LINE
  8
0
 10
211.975
 20
735.978
 11
212.187
 21
736.045
  0
LINE
  8
0
 10
212.187
 20
736.045
 11
212.399
 21
736.108
  0
LINE
  8
0
 10
212.399
 20
736.108
 11
212.613
 21
736.167
  0
LINE
  8
0
 10
212.613
 20
736.167
 11
212.828
 21
736.223
  0
LINE
  8
0
 10
212.828
 20
736.223
 11
213.043
 21
736.274
  0
LINE
  8
0
 10
213.043
 20
736.274
 11
213.26
 21
736.322
  0
LINE
  8
0
 10
213.26
 20
736.322
 11
213.477
 21
736.367
  0
LINE
  8
0
 10
213.477
 20
736.367
 11
213.695
 21
736.407
  0
LINE
  8
0
 10
213.695
 20
736.407
 11
213.913
 21
736.444
  0
LINE
  8
0
 10
213.913
 20
736.444
 11
214.133
 21
736.476
  0
LINE
  8
0
 10
214.133
 20
736.476
 11
214.352
 21
736.505
  0
LINE
  8
0
 10
214.352
 20
736.505
 11
214.572
 21
736.53
  0
LINE
  8
0
 10
214.572
 20
736.53
 11
214.793
 21
736.552
  0
LINE
  8
0
 10
214.793
 20
736.552
 11
215.014
 21
736.569
  0
LINE
  8
0
 10
215.014
 20
736.569
 11
215.235
 21
736.583
  0
LINE
  8
0
 10
215.235
 20
736.583
 11
215.457
 21
736.592
  0
LINE
  8
0
 10
215.457
 20
736.592
 11
215.678
 21
736.598
  0
LINE
  8
0
 10
215.678
 20
736.598
 11
215.9
 21
736.6
  0
LINE
  8
0
 10
215.9
 20
736.6
 11
297.18
 21
736.6
  0
LINE
  8
0
 10
297.18
 20
736.6
 11
297.402
 21
736.598
  0
LINE
  8
0
 10
297.402
 20
736.598
 11
297.623
 21
736.592
  0
LINE
  8
0
 10
297.623
 20
736.592
 11
297.845
 21
736.583
  0
LINE
  8
0
 10
297.845
 20
736.583
 11
298.066
 21
736.569
  0
LINE
  8
0
 10
298.066
 20
736.569
 11
298.287
 21
736.552
  0
LINE
  8
0
 10
298.287
 20
736.552
 11
298.508
 21
736.53
  0
LINE
  8
0
 10
298.508
 20
736.53
 11
298.728
 21
736.505
  0
LINE
  8
0
 10
298.728
 20
736.505
 11
298.948
 21
736.476
  0
LINE
  8
0
 10
298.948
 20
736.476
 11
299.167
 21
736.444
  0
LINE
  8
0
 10
299.167
 20
736.444
 11
299.385
 21
736.407
  0
LINE
  8
0
 10
299.385
 20
736.407
 11
299.603
 21
736.367
  0
LINE
  8
0
 10
299.603
 20
736.367
 11
299.82
 21
736.322
  0
LINE
  8
0
 10
299.82
 20
736.322
 11
300.037
 21
736.274
  0
LINE
  8
0
 10
300.037
 20
736.274
 11
300.252
 21
736.223
  0
LINE
  8
0
 10
300.252
 20
736.223
 11
300.467
 21
736.167
  0
LINE
  8
0
 10
300.467
 20
736.167
 11
300.681
 21
736.108
  0
LINE
  8
0
 10
300.681
 20
736.108
 11
300.893
 21
736.045
  0
LINE
  8
0
 10
300.893
 20
736.045
 11
301.105
 21
735.978
  0
LINE
  8
0
 10
301.105
 20
735.978
 11
301.315
 21
735.908
  0
LINE
  8
0
 10
301.315
 20
735.908
 11
301.524
 21
735.834
  0
LINE
  8
0
 10
301.524
 20
735.834
 11
301.731
 21
735.756
  0
LINE
  8
0
 10
301.731
 20
735.756
 11
301.938
 21
735.675
  0
LINE
  8
0
 10
301.938
 20
735.675
 11
302.142
 21
735.59
  0
LINE
  8
0
 10
302.142
 20
735.59
 11
302.346
 21
735.502
  0
LINE
  8
0
 10
302.346
 20
735.502
 11
302.547
 21
735.41
  0
LINE
  8
0
 10
302.547
 20
735.41
 11
302.747
 21
735.315
  0
LINE
  8
0
 10
302.747
 20
735.315
 11
302.946
 21
735.216
  0
LINE
  8
0
 10
302.946
 20
735.216
 11
303.142
 21
735.113
  0
LINE
  8
0
 10
303.142
 20
735.113
 11
303.337
 21
735.008
  0
LINE
  8
0
 10
303.337
 20
735.008
 11
303.53
 21
734.898
  0
LINE
  8
0
 10
303.53
 20
734.898
 11
303.721
 21
734.786
  0
LINE
  8
0
 10
303.721
 20
734.786
 11
303.91
 21
734.67
  0
LINE
  8
0
 10
303.91
 20
734.67
 11
304.097
 21
734.551
  0
LINE
  8
0
 10
304.097
 20
734.551
 11
304.282
 21
734.429
  0
LINE
  8
0
 10
304.282
 20
734.429
 11
304.464
 21
734.303
  0
LINE
  8
0
 10
304.464
 20
734.303
 11
304.645
 21
734.174
  0
LINE
  8
0
 10
304.645
 20
734.174
 11
304.823
 21
734.043
  0
LINE
  8
0
 10
304.823
 20
734.043
 11
304.999
 21
733.908
  0
LINE
  8
0
 10
304.999
 20
733.908
 11
305.172
 21
733.77
  0
LINE
  8
0
 10
305.172
 20
733.77
 11
305.343
 21
733.629
  0
LINE
  8
0
 10
305.343
 20
733.629
 11
305.512
 21
733.485
  0
LINE
  8
0
 10
305.512
 20
733.485
 11
305.678
 21
733.338
  0
LINE
  8
0
 10
305.678
 20
733.338
 11
305.841
 21
733.188
  0
LINE
  8
0
 10
305.841
 20
733.188
 11
306.002
 21
733.036
  0
LINE
  8
0
 10
306.002
 20
733.036
 11
306.16
 21
732.88
  0
LINE
  8
0
 10
306.16
 20
732.88
 11
306.316
 21
732.722
  0
LINE
  8
0
 10
306.316
 20
732.722
 11
306.468
 21
732.561
  0
LINE
  8
0
 10
306.468
 20
732.561
 11
306.618
 21
732.398
  0
LINE
  8
0
 10
306.618
 20
732.398
 11
306.765
 21
732.232
  0
LINE
  8
0
 10
306.765
 20
732.232
 11
306.909
 21
732.063
  0
LINE
  8
0
 10
306.909
 20
732.063
 11
307.05
 21
731.892
  0
LINE
  8
0
 10
307.05
 20
731.892
 11
307.188
 21
731.719
  0
LINE
  8
0
 10
307.188
 20
731.719
 11
307.323
 21
731.543
  0
LINE
  8
0
 10
307.323
 20
731.543
 11
307.455
 21
731.365
  0
LINE
  8
0
 10
307.455
 20
731.365
 11
307.583
 21
731.184
  0
LINE
  8
0
 10
307.583
 20
731.184
 11
307.709
 21
731.002
  0
LINE
  8
0
 10
307.709
 20
731.002
 11
307.831
 21
730.817
  0
LINE
  8
0
 10
307.831
 20
730.817
 11
307.95
 21
730.63
  0
LINE
  8
0
 10
307.95
 20
730.63
 11
308.066
 21
730.441
  0
LINE
  8
0
 10
308.066
 20
730.441
 11
308.179
 21
730.25
  0
LINE
  8
0
 10
308.179
 20
730.25
 11
308.288
 21
730.057
  0
LINE
  8
0
 10
308.288
 20
730.057
 11
308.393
 21
729.862
  0
LINE
  8
0
 10
308.393
 20
729.862
 11
308.496
 21
729.666
  0
LINE
  8
0
 10
308.496
 20
729.666
 11
308.595
 21
729.467
  0
LINE
  8
0
 10
308.595
 20
729.467
 11
308.69
 21
729.267
  0
LINE
  8
0
 10
308.69
 20
729.267
 11
308.782
 21
729.066
  0
LINE
  8
0
 10
308.782
 20
729.066
 11
308.87
 21
728.862
  0
LINE
  8
0
 10
308.87
 20
728.862
 11
308.955
 21
728.658
  0
LINE
  8
0
 10
308.955
 20
728.658
 11
309.036
 21
728.451
  0
LINE
  8
0
 10
309.036
 20
728.451
 11
309.114
 21
728.244
  0
LINE
  8
0
 10
309.114
 20
728.244
 11
309.188
 21
728.035
  0
LINE
  8
0
 10
309.188
 20
728.035
 11
309.258
 21
727.825
  0
LINE
  8
0
 10
309.258
 20
727.825
 11
309.325
 21
727.613
  0
LINE
  8
0
 10
309.325
 20
727.613
 11
309.388
 21
727.401
  0
LINE
  8
0
 10
309.388
 20
727.401
 11
309.447
 21
727.187
  0
LINE
  8
0
 10
309.447
 20
727.187
 11
309.503
 21
726.972
  0
LINE
  8
0
 10
309.503
 20
726.972
 11
309.555
 21
726.757
  0
LINE
  8
0
 10
309.555
 20
726.757
 11
309.602
 21
726.54
  0
LINE
  8
0
 10
309.602
 20
726.54
 11
309.647
 21
726.323
  0
LINE
  8
0
 10
309.647
 20
726.323
 11
309.687
 21
726.105
  0
LINE
  8
0
 10
309.687
 20
726.105
 11
309.724
 21
725.887
  0
LINE
  8
0
 10
309.724
 20
725.887
 11
309.756
 21
725.667
  0
LINE
  8
0
 10
309.756
 20
725.667
 11
309.785
 21
725.448
  0
LINE
  8
0
 10
309.785
 20
725.448
 11
309.81
 21
725.228
  0
LINE
  8
0
 10
309.81
 20
725.228
 11
309.832
 21
725.007
  0
LINE
  8
0
 10
309.832
 20
725.007
 11
309.849
 21
724.786
  0
LINE
  8
0
 10
309.849
 20
724.786
 11
309.863
 21
724.565
  0
LINE
  8
0
 10
309.863
 20
724.565
 11
309.872
 21
724.343
  0
LINE
  8
0
 10
309.872
 20
724.343
 11
309.878
 21
724.122
  0
LINE
  8
0
 10
309.878
 20
724.122
 11
309.88
 21
723.9
  0
LINE
  8
0
 10
309.88
 20
723.9
 11
309.88
 21
63.5
  0
LINE
  8
0
 10
309.88
 20
63.5
 11
309.878
 21
63.2784
  0
LINE
  8
0
 10
309.878
 20
63.2784
 11
309.872
 21
63.0568
  0
LINE
  8
0
 10
309.872
 20
63.0568
 11
309.863
 21
62.8353
  0
LINE
  8
0
 10
309.863
 20
62.8353
 11
309.849
 21
62.6141
  0
LINE
  8
0
 10
309.849
 20
62.6141
 11
309.832
 21
62.3931
  0
LINE
  8
0
 10
309.832
 20
62.3931
 11
309.81
 21
62.1725
  0
LINE
  8
0
 10
309.81
 20
62.1725
 11
309.785
 21
61.9523
  0
LINE
  8
0
 10
309.785
 20
61.9523
 11
309.756
 21
61.7325
  0
LINE
  8
0
 10
309.756
 20
61.7325
 11
309.724
 21
61.5133
  0
LINE
  8
0
 10
309.724
 20
61.5133
 11
309.687
 21
61.2947
  0
LINE
  8
0
 10
309.687
 20
61.2947
 11
309.647
 21
61.0767
  0
LINE
  8
0
 10
309.647
 20
61.0767
 11
309.602
 21
60.8595
  0
LINE
  8
0
 10
309.602
 20
60.8595
 11
309.555
 21
60.6431
  0
LINE
  8
0
 10
309.555
 20
60.6431
 11
309.503
 21
60.4276
  0
LINE
  8
0
 10
309.503
 20
60.4276
 11
309.447
 21
60.213
  0
LINE
  8
0
 10
309.447
 20
60.213
 11
309.388
 21
59.9994
  0
LINE
  8
0
 10
309.388
 20
59.9994
 11
309.325
 21
59.7869
  0
LINE
  8
0
 10
309.325
 20
59.7869
 11
309.258
 21
59.5755
  0
LINE
  8
0
 10
309.258
 20
59.5755
 11
309.188
 21
59.3653
  0
LINE
  8
0
 10
309.188
 20
59.3653
 11
309.114
 21
59.1563
  0
LINE
  8
0
 10
309.114
 20
59.1563
 11
309.036
 21
58.9487
  0
LINE
  8
0
 10
309.036
 20
58.9487
 11
308.955
 21
58.7425
  0
LINE
  8
0
 10
308.955
 20
58.7425
 11
308.87
 21
58.5377
  0
LINE
  8
0
 10
308.87
 20
58.5377
 11
308.782
 21
58.3344
  0
LINE
  8
0
 10
308.782
 20
58.3344
 11
308.69
 21
58.1327
  0
LINE
  8
0
 10
308.69
 20
58.1327
 11
308.595
 21
57.9327
  0
LINE
  8
0
 10
308.595
 20
57.9327
 11
308.496
 21
57.7343
  0
LINE
  8
0
 10
308.496
 20
57.7343
 11
308.393
 21
57.5377
  0
LINE
  8
0
 10
308.393
 20
57.5377
 11
308.288
 21
57.3429
  0
LINE
  8
0
 10
308.288
 20
57.3429
 11
308.179
 21
57.15
  0
LINE
  8
0
 10
308.179
 20
57.15
 11
308.066
 21
56.959
  0
LINE
  8
0
 10
308.066
 20
56.959
 11
307.95
 21
56.77
  0
LINE
  8
0
 10
307.95
 20
56.77
 11
307.831
 21
56.5831
  0
LINE
  8
0
 10
307.831
 20
56.5831
 11
307.709
 21
56.3982
  0
LINE
  8
0
 10
307.709
 20
56.3982
 11
307.583
 21
56.2156
  0
LINE
  8
0
 10
307.583
 20
56.2156
 11
307.455
 21
56.0351
  0
LINE
  8
0
 10
307.455
 20
56.0351
 11
307.323
 21
55.8569
  0
LINE
  8
0
 10
307.323
 20
55.8569
 11
307.188
 21
55.6811
  0
LINE
  8
0
 10
307.188
 20
55.6811
 11
307.05
 21
55.5076
  0
LINE
  8
0
 10
307.05
 20
55.5076
 11
306.909
 21
55.3366
  0
LINE
  8
0
 10
306.909
 20
55.3366
 11
306.765
 21
55.168
  0
LINE
  8
0
 10
306.765
 20
55.168
 11
306.618
 21
55.002
  0
LINE
  8
0
 10
306.618
 20
55.002
 11
306.468
 21
54.8386
  0
LINE
  8
0
 10
306.468
 20
54.8386
 11
306.316
 21
54.6778
  0
LINE
  8
0
 10
306.316
 20
54.6778
 11
306.16
 21
54.5197
  0
LINE
  8
0
 10
306.16
 20
54.5197
 11
306.002
 21
54.3644
  0
LINE
  8
0
 10
306.002
 20
54.3644
 11
305.841
 21
54.2118
  0
LINE
  8
0
 10
305.841
 20
54.2118
 11
305.678
 21
54.0621
  0
LINE
  8
0
 10
305.678
 20
54.0621
 11
305.512
 21
53.9152
  0
LINE
  8
0
 10
305.512
 20
53.9152
 11
305.343
 21
53.7712
  0
LINE
  8
0
 10
305.343
 20
53.7712
 11
305.172
 21
53.6302
  0
LINE
  8
0
 10
305.172
 20
53.6302
 11
304.999
 21
53.4923
  0
LINE
  8
0
 10
304.999
 20
53.4923
 11
304.823
 21
53.3573
  0
LINE
  8
0
 10
304.823
 20
53.3573
 11
304.645
 21
53.2255
  0
LINE
  8
0
 10
304.645
 20
53.2255
 11
304.464
 21
53.0968
  0
LINE
  8
0
 10
304.464
 20
53.0968
 11
304.282
 21
52.9712
  0
LINE
  8
0
 10
304.282
 20
52.9712
 11
304.097
 21
52.8489
  0
LINE
  8
0
 10
304.097
 20
52.8489
 11
303.91
 21
52.7298
  0
LINE
  8
0
 10
303.91
 20
52.7298
 11
303.721
 21
52.614
  0
LINE
  8
0
 10
303.721
 20
52.614
 11
303.53
 21
52.5015
  0
LINE
  8
0
 10
303.53
 20
52.5015
 11
303.337
 21
52.3923
  0
LINE
  8
0
 10
303.337
 20
52.3923
 11
303.142
 21
52.2866
  0
LINE
  8
0
 10
303.142
 20
52.2866
 11
302.946
 21
52.1842
  0
LINE
  8
0
 10
302.946
 20
52.1842
 11
302.747
 21
52.0853
  0
LINE
  8
0
 10
302.747
 20
52.0853
 11
302.547
 21
51.9899
  0
LINE
  8
0
 10
302.547
 20
51.9899
 11
302.346
 21
51.898
  0
LINE
  8
0
 10
302.346
 20
51.898
 11
302.142
 21
51.8096
  0
LINE
  8
0
 10
302.142
 20
51.8096
 11
301.938
 21
51.7248
  0
LINE
  8
0
 10
301.938
 20
51.7248
 11
301.731
 21
51.6435
  0
LINE
  8
0
 10
301.731
 20
51.6435
 11
301.524
 21
51.5659
  0
LINE
  8
0
 10
301.524
 20
51.5659
 11
301.315
 21
51.4919
  0
LINE
  8
0
 10
301.315
 20
51.4919
 11
301.105
 21
51.4216
  0
LINE
  8
0
 10
301.105
 20
51.4216
 11
300.893
 21
51.3549
  0
LINE
  8
0
 10
300.893
 20
51.3549
 11
300.681
 21
51.292
  0
LINE
  8
0
 10
300.681
 20
51.292
 11
300.467
 21
51.2327
  0
LINE
  8
0
 10
300.467
 20
51.2327
 11
300.252
 21
51.1772
  0
LINE
  8
0
 10
300.252
 20
51.1772
 11
300.037
 21
51.1255
  0
LINE
  8
0
 10
300.037
 20
51.1255
 11
299.82
 21
51.0775
  0
LINE
  8
0
 10
299.82
 20
51.0775
 11
299.603
 21
51.0333
  0
LINE
  8
0
 10
299.603
 20
51.0333
 11
299.385
 21
50.9929
  0
LINE
  8
0
 10
299.385
 20
50.9929
 11
299.167
 21
50.9564
  0
LINE
  8
0
 10
299.167
 20
50.9564
 11
298.948
 21
50.9236
  0
LINE
  8
0
 10
298.948
 20
50.9236
 11
298.728
 21
50.8947
  0
LINE
  8
0
 10
298.728
 20
50.8947
 11
298.508
 21
50.8696
  0
LINE
  8
0
 10
298.508
 20
50.8696
 11
298.287
 21
50.8483
  0
LINE
  8
0
 10
298.287
 20
50.8483
 11
298.066
 21
50.8309
  0
LINE
  8
0
 10
298.066
 20
50.8309
 11
297.845
 21
50.8174
  0
LINE
  8
0
 10
297.845
 20
50.8174
 11
297.623
 21
50.8077
  0
LINE
  8
0
 10
297.623
 20
50.8077
 11
297.402
 21
50.8019
  0
LINE
  8
0
 10
297.402
 20
50.8019
 11
297.18
 21
50.8
  0
LINE
  8
0
 10
297.18
 20
50.8
 11
215.9
 21
50.8
  0
LINE
  8
0
 10
19.05
 20
38.1
 11
19.05
 21
101.6
  0
LINE
  8
0
 10
19.05
 20
101.6
 11
38.1
 21
101.6
  0
LINE
  8
0
 10
38.1
 20
101.6
 11
38.1
 21
38.1
  0
LINE
  8
0
 10
38.1
 20
38.1
 11
19.05
 21
38.1
  0
ENDSEC
  0
SECTION
  2
OBJECTS
  0
DICTIONARY
  0
ENDSEC
  0
EOF
