  0
SECTION
  2
BLOCKS
  0
ENDSEC
  0
SECTION
  2
ENTITIES
  0
LINE
  8
0
 10
927.1
 20
82.6
 11
936.625
 21
82.6
  0
LINE
  8
0
 10
936.625
 20
82.6
 11
936.625
 21
133.4
  0
LINE
  8
0
 10
936.625
 20
133.4
 11
927.1
 21
133.4
  0
LINE
  8
0
 10
927.1
 20
133.4
 11
927.1
 21
372.533
  0
LINE
  8
0
 10
927.1
 20
372.533
 11
936.625
 21
372.533
  0
LINE
  8
0
 10
936.625
 20
372.533
 11
936.625
 21
423.333
  0
LINE
  8
0
 10
936.625
 20
423.333
 11
927.1
 21
423.333
  0
LINE
  8
0
 10
927.1
 20
423.333
 11
927.1
 21
474.133
  0
LINE
  8
0
 10
927.1
 20
474.133
 11
636.27
 21
474.133
  0
LINE
  8
0
 10
636.27
 20
474.133
 11
636.27
 21
493.183
  0
LINE
  8
0
 10
636.27
 20
493.183
 11
560.07
 21
493.183
  0
LINE
  8
0
 10
560.07
 20
493.183
 11
560.07
 21
474.133
  0
LINE
  8
0
 10
560.07
 20
474.133
 11
476.25
 21
474.133
  0
LINE
  8
0
 10
476.25
 20
474.133
 11
476.25
 21
436.033
  0
LINE
  8
0
 10
476.25
 20
436.033
 11
450.85
 21
436.033
  0
LINE
  8
0
 10
450.85
 20
436.033
 11
450.85
 21
474.133
  0
LINE
  8
0
 10
450.85
 20
474.133
 11
367.03
 21
474.133
  0
LINE
  8
0
 10
367.03
 20
474.133
 11
367.03
 21
493.183
  0
LINE
  8
0
 10
367.03
 20
493.183
 11
290.83
 21
493.183
  0
LINE
  8
0
 10
290.83
 20
493.183
 11
290.83
 21
474.133
  0
LINE
  8
0
 10
290.83
 20
474.133
 11
0
 21
474.133
  0
LINE
  8
0
 10
0
 20
474.133
 11
0
 21
423.333
  0
LINE
  8
0
 10
0
 20
423.333
 11
-9.52499
 21
423.333
  0
LINE
  8
0
 10
-9.52499
 20
423.333
 11
-9.52499
 21
372.533
  0
LINE
  8
0
 10
-9.52499
 20
372.533
 11
0
 21
372.533
  0
LINE
  8
0
 10
0
 20
372.533
 11
0
 21
133.4
  0
LINE
  8
0
 10
0
 20
133.4
 11
-9.52499
 21
133.4
  0
LINE
  8
0
 10
-9.52499
 20
133.4
 11
-9.52499
 21
82.6
  0
LINE
  8
0
 10
-9.52499
 20
82.6
 11
0
 21
82.6
  0
LINE
  8
0
 10
0
 20
82.6
 11
0
 21
0
  0
LINE
  8
0
 10
0
 20
0
 11
927.1
 21
0
  0
LINE
  8
0
 10
927.1
 20
0
 11
927.1
 21
82.6
  0
ENDSEC
  0
SECTION
  2
OBJECTS
  0
DICTIONARY
  0
ENDSEC
  0
EOF
