  0
SECTION
  2
BLOCKS
  0
ENDSEC
  0
SECTION
  2
ENTITIES
  0
LINE
  8
0
 10
25.4
 20
38.1
 11
44.45
 21
38.1
  0
LINE
  8
0
 10
44.45
 20
38.1
 11
44.45
 21
0
  0
LINE
  8
0
 10
44.45
 20
0
 11
457.2
 21
0
  0
LINE
  8
0
 10
457.2
 20
0
 11
457.2
 21
1
  0
LINE
  8
0
 10
457.2
 20
1
 11
470.109
 21
130.983
  0
LINE
  8
0
 10
470.109
 20
130.983
 11
470.184
 21
131.643
  0
LINE
  8
0
 10
470.184
 20
131.643
 11
470.271
 21
132.302
  0
LINE
  8
0
 10
470.271
 20
132.302
 11
470.369
 21
132.96
  0
LINE
  8
0
 10
470.369
 20
132.96
 11
470.479
 21
133.616
  0
LINE
  8
0
 10
470.479
 20
133.616
 11
470.6
 21
134.27
  0
LINE
  8
0
 10
470.6
 20
134.27
 11
470.733
 21
134.921
  0
LINE
  8
0
 10
470.733
 20
134.921
 11
470.876
 21
135.571
  0
LINE
  8
0
 10
470.876
 20
135.571
 11
471.032
 21
136.217
  0
LINE
  8
0
 10
471.032
 20
136.217
 11
471.198
 21
136.861
  0
LINE
  8
0
 10
471.198
 20
136.861
 11
471.376
 21
137.502
  0
LINE
  8
0
 10
471.376
 20
137.502
 11
471.565
 21
138.139
  0
LINE
  8
0
 10
471.565
 20
138.139
 11
471.765
 21
138.774
  0
LINE
  8
0
 10
471.765
 20
138.774
 11
471.976
 21
139.404
  0
LINE
  8
0
 10
471.976
 20
139.404
 11
472.198
 21
140.031
  0
LINE
  8
0
 10
472.198
 20
140.031
 11
472.431
 21
140.654
  0
LINE
  8
0
 10
472.431
 20
140.654
 11
472.674
 21
141.273
  0
LINE
  8
0
 10
472.674
 20
141.273
 11
472.929
 21
141.887
  0
LINE
  8
0
 10
472.929
 20
141.887
 11
473.194
 21
142.497
  0
LINE
  8
0
 10
473.194
 20
142.497
 11
473.47
 21
143.102
  0
LINE
  8
0
 10
473.47
 20
143.102
 11
473.756
 21
143.702
  0
LINE
  8
0
 10
473.756
 20
143.702
 11
474.053
 21
144.297
  0
LINE
  8
0
 10
474.053
 20
144.297
 11
474.36
 21
144.887
  0
LINE
  8
0
 10
474.36
 20
144.887
 11
474.677
 21
145.471
  0
LINE
  8
0
 10
474.677
 20
145.471
 11
475.004
 21
146.05
  0
LINE
  8
0
 10
475.004
 20
146.05
 11
475.342
 21
146.623
  0
LINE
  8
0
 10
475.342
 20
146.623
 11
475.689
 21
147.19
  0
LINE
  8
0
 10
475.689
 20
147.19
 11
476.047
 21
147.751
  0
LINE
  8
0
 10
476.047
 20
147.751
 11
476.414
 21
148.305
  0
LINE
  8
0
 10
476.414
 20
148.305
 11
476.79
 21
148.853
  0
LINE
  8
0
 10
476.79
 20
148.853
 11
477.176
 21
149.395
  0
LINE
  8
0
 10
477.176
 20
149.395
 11
477.572
 21
149.929
  0
LINE
  8
0
 10
477.572
 20
149.929
 11
477.977
 21
150.457
  0
LINE
  8
0
 10
477.977
 20
150.457
 11
478.391
 21
150.977
  0
LINE
  8
0
 10
478.391
 20
150.977
 11
478.814
 21
151.49
  0
LINE
  8
0
 10
478.814
 20
151.49
 11
479.246
 21
151.996
  0
LINE
  8
0
 10
479.246
 20
151.996
 11
479.686
 21
152.494
  0
LINE
  8
0
 10
479.686
 20
152.494
 11
480.135
 21
152.984
  0
LINE
  8
0
 10
480.135
 20
152.984
 11
480.593
 21
153.466
  0
LINE
  8
0
 10
480.593
 20
153.466
 11
481.059
 21
153.941
  0
LINE
  8
0
 10
481.059
 20
153.941
 11
481.534
 21
154.407
  0
LINE
  8
0
 10
481.534
 20
154.407
 11
482.016
 21
154.865
  0
LINE
  8
0
 10
482.016
 20
154.865
 11
482.506
 21
155.314
  0
LINE
  8
0
 10
482.506
 20
155.314
 11
483.004
 21
155.754
  0
LINE
  8
0
 10
483.004
 20
155.754
 11
483.51
 21
156.186
  0
LINE
  8
0
 10
483.51
 20
156.186
 11
484.023
 21
156.609
  0
LINE
  8
0
 10
484.023
 20
156.609
 11
484.543
 21
157.023
  0
LINE
  8
0
 10
484.543
 20
157.023
 11
485.071
 21
157.428
  0
LINE
  8
0
 10
485.071
 20
157.428
 11
485.605
 21
157.824
  0
LINE
  8
0
 10
485.605
 20
157.824
 11
486.147
 21
158.21
  0
LINE
  8
0
 10
486.147
 20
158.21
 11
486.695
 21
158.586
  0
LINE
  8
0
 10
486.695
 20
158.586
 11
487.249
 21
158.953
  0
LINE
  8
0
 10
487.249
 20
158.953
 11
487.81
 21
159.311
  0
LINE
  8
0
 10
487.81
 20
159.311
 11
488.377
 21
159.658
  0
LINE
  8
0
 10
488.377
 20
159.658
 11
488.95
 21
159.996
  0
LINE
  8
0
 10
488.95
 20
159.996
 11
489.529
 21
160.323
  0
LINE
  8
0
 10
489.529
 20
160.323
 11
490.113
 21
160.64
  0
LINE
  8
0
 10
490.113
 20
160.64
 11
490.703
 21
160.947
  0
LINE
  8
0
 10
490.703
 20
160.947
 11
491.298
 21
161.244
  0
LINE
  8
0
 10
491.298
 20
161.244
 11
491.898
 21
161.53
  0
LINE
  8
0
 10
491.898
 20
161.53
 11
492.503
 21
161.806
  0
LINE
  8
0
 10
492.503
 20
161.806
 11
493.113
 21
162.071
  0
LINE
  8
0
 10
493.113
 20
162.071
 11
493.727
 21
162.326
  0
LINE
  8
0
 10
493.727
 20
162.326
 11
494.346
 21
162.569
  0
LINE
  8
0
 10
494.346
 20
162.569
 11
494.969
 21
162.802
  0
LINE
  8
0
 10
494.969
 20
162.802
 11
495.596
 21
163.024
  0
LINE
  8
0
 10
495.596
 20
163.024
 11
496.226
 21
163.235
  0
LINE
  8
0
 10
496.226
 20
163.235
 11
496.861
 21
163.435
  0
LINE
  8
0
 10
496.861
 20
163.435
 11
497.498
 21
163.624
  0
LINE
  8
0
 10
497.498
 20
163.624
 11
498.139
 21
163.802
  0
LINE
  8
0
 10
498.139
 20
163.802
 11
498.783
 21
163.968
  0
LINE
  8
0
 10
498.783
 20
163.968
 11
499.429
 21
164.124
  0
LINE
  8
0
 10
499.429
 20
164.124
 11
500.079
 21
164.267
  0
LINE
  8
0
 10
500.079
 20
164.267
 11
500.73
 21
164.4
  0
LINE
  8
0
 10
500.73
 20
164.4
 11
501.384
 21
164.521
  0
LINE
  8
0
 10
501.384
 20
164.521
 11
502.04
 21
164.631
  0
LINE
  8
0
 10
502.04
 20
164.631
 11
502.698
 21
164.729
  0
LINE
  8
0
 10
502.698
 20
164.729
 11
503.357
 21
164.816
  0
LINE
  8
0
 10
503.357
 20
164.816
 11
504.017
 21
164.891
  0
LINE
  8
0
 10
504.017
 20
164.891
 11
504.679
 21
164.955
  0
LINE
  8
0
 10
504.679
 20
164.955
 11
505.342
 21
165.007
  0
LINE
  8
0
 10
505.342
 20
165.007
 11
506.006
 21
165.048
  0
LINE
  8
0
 10
506.006
 20
165.048
 11
506.67
 21
165.077
  0
LINE
  8
0
 10
506.67
 20
165.077
 11
507.335
 21
165.094
  0
LINE
  8
0
 10
507.335
 20
165.094
 11
508
 21
165.1
  0
LINE
  8
0
 10
508
 20
165.1
 11
508.665
 21
165.094
  0
LINE
  8
0
 10
508.665
 20
165.094
 11
509.33
 21
165.077
  0
LINE
  8
0
 10
509.33
 20
165.077
 11
509.994
 21
165.048
  0
LINE
  8
0
 10
509.994
 20
165.048
 11
510.658
 21
165.007
  0
LINE
  8
0
 10
510.658
 20
165.007
 11
511.321
 21
164.955
  0
LINE
  8
0
 10
511.321
 20
164.955
 11
511.983
 21
164.891
  0
LINE
  8
0
 10
511.983
 20
164.891
 11
512.643
 21
164.816
  0
LINE
  8
0
 10
512.643
 20
164.816
 11
513.302
 21
164.729
  0
LINE
  8
0
 10
513.302
 20
164.729
 11
513.96
 21
164.631
  0
LINE
  8
0
 10
513.96
 20
164.631
 11
514.616
 21
164.521
  0
LINE
  8
0
 10
514.616
 20
164.521
 11
515.27
 21
164.4
  0
LINE
  8
0
 10
515.27
 20
164.4
 11
515.921
 21
164.267
  0
LINE
  8
0
 10
515.921
 20
164.267
 11
516.571
 21
164.124
  0
LINE
  8
0
 10
516.571
 20
164.124
 11
517.217
 21
163.968
  0
LINE
  8
0
 10
517.217
 20
163.968
 11
517.861
 21
163.802
  0
LINE
  8
0
 10
517.861
 20
163.802
 11
518.502
 21
163.624
  0
LINE
  8
0
 10
518.502
 20
163.624
 11
519.139
 21
163.435
  0
LINE
  8
0
 10
519.139
 20
163.435
 11
519.774
 21
163.235
  0
LINE
  8
0
 10
519.774
 20
163.235
 11
520.404
 21
163.024
  0
LINE
  8
0
 10
520.404
 20
163.024
 11
521.031
 21
162.802
  0
LINE
  8
0
 10
521.031
 20
162.802
 11
521.654
 21
162.569
  0
LINE
  8
0
 10
521.654
 20
162.569
 11
522.273
 21
162.326
  0
LINE
  8
0
 10
522.273
 20
162.326
 11
522.887
 21
162.071
  0
LINE
  8
0
 10
522.887
 20
162.071
 11
523.497
 21
161.806
  0
LINE
  8
0
 10
523.497
 20
161.806
 11
524.102
 21
161.53
  0
LINE
  8
0
 10
524.102
 20
161.53
 11
524.702
 21
161.244
  0
LINE
  8
0
 10
524.702
 20
161.244
 11
525.297
 21
160.947
  0
LINE
  8
0
 10
525.297
 20
160.947
 11
525.887
 21
160.64
  0
LINE
  8
0
 10
525.887
 20
160.64
 11
526.471
 21
160.323
  0
LINE
  8
0
 10
526.471
 20
160.323
 11
527.05
 21
159.996
  0
LINE
  8
0
 10
527.05
 20
159.996
 11
527.623
 21
159.658
  0
LINE
  8
0
 10
527.623
 20
159.658
 11
528.19
 21
159.311
  0
LINE
  8
0
 10
528.19
 20
159.311
 11
528.751
 21
158.953
  0
LINE
  8
0
 10
528.751
 20
158.953
 11
529.305
 21
158.586
  0
LINE
  8
0
 10
529.305
 20
158.586
 11
529.853
 21
158.21
  0
LINE
  8
0
 10
529.853
 20
158.21
 11
530.395
 21
157.824
  0
LINE
  8
0
 10
530.395
 20
157.824
 11
530.929
 21
157.428
  0
LINE
  8
0
 10
530.929
 20
157.428
 11
531.457
 21
157.023
  0
LINE
  8
0
 10
531.457
 20
157.023
 11
531.977
 21
156.609
  0
LINE
  8
0
 10
531.977
 20
156.609
 11
532.49
 21
156.186
  0
LINE
  8
0
 10
532.49
 20
156.186
 11
532.996
 21
155.754
  0
LINE
  8
0
 10
532.996
 20
155.754
 11
533.494
 21
155.314
  0
LINE
  8
0
 10
533.494
 20
155.314
 11
533.984
 21
154.865
  0
LINE
  8
0
 10
533.984
 20
154.865
 11
534.466
 21
154.407
  0
LINE
  8
0
 10
534.466
 20
154.407
 11
534.941
 21
153.941
  0
LINE
  8
0
 10
534.941
 20
153.941
 11
535.407
 21
153.466
  0
LINE
  8
0
 10
535.407
 20
153.466
 11
535.865
 21
152.984
  0
LINE
  8
0
 10
535.865
 20
152.984
 11
536.314
 21
152.494
  0
LINE
  8
0
 10
536.314
 20
152.494
 11
536.754
 21
151.996
  0
LINE
  8
0
 10
536.754
 20
151.996
 11
537.186
 21
151.49
  0
LINE
  8
0
 10
537.186
 20
151.49
 11
537.609
 21
150.977
  0
LINE
  8
0
 10
537.609
 20
150.977
 11
538.023
 21
150.457
  0
LINE
  8
0
 10
538.023
 20
150.457
 11
538.428
 21
149.929
  0
LINE
  8
0
 10
538.428
 20
149.929
 11
538.824
 21
149.395
  0
LINE
  8
0
 10
538.824
 20
149.395
 11
539.21
 21
148.853
  0
LINE
  8
0
 10
539.21
 20
148.853
 11
539.586
 21
148.305
  0
LINE
  8
0
 10
539.586
 20
148.305
 11
539.953
 21
147.751
  0
LINE
  8
0
 10
539.953
 20
147.751
 11
540.311
 21
147.19
  0
LINE
  8
0
 10
540.311
 20
147.19
 11
540.658
 21
146.623
  0
LINE
  8
0
 10
540.658
 20
146.623
 11
540.996
 21
146.05
  0
LINE
  8
0
 10
540.996
 20
146.05
 11
541.323
 21
145.471
  0
LINE
  8
0
 10
541.323
 20
145.471
 11
541.64
 21
144.887
  0
LINE
  8
0
 10
541.64
 20
144.887
 11
541.947
 21
144.297
  0
LINE
  8
0
 10
541.947
 20
144.297
 11
542.244
 21
143.702
  0
LINE
  8
0
 10
542.244
 20
143.702
 11
542.53
 21
143.102
  0
LINE
  8
0
 10
542.53
 20
143.102
 11
542.806
 21
142.497
  0
LINE
  8
0
 10
542.806
 20
142.497
 11
543.071
 21
141.887
  0
LINE
  8
0
 10
543.071
 20
141.887
 11
543.326
 21
141.273
  0
LINE
  8
0
 10
543.326
 20
141.273
 11
543.569
 21
140.654
  0
LINE
  8
0
 10
543.569
 20
140.654
 11
543.802
 21
140.031
  0
LINE
  8
0
 10
543.802
 20
140.031
 11
544.024
 21
139.404
  0
LINE
  8
0
 10
544.024
 20
139.404
 11
544.235
 21
138.774
  0
LINE
  8
0
 10
544.235
 20
138.774
 11
544.435
 21
138.139
  0
LINE
  8
0
 10
544.435
 20
138.139
 11
544.624
 21
137.502
  0
LINE
  8
0
 10
544.624
 20
137.502
 11
544.802
 21
136.861
  0
LINE
  8
0
 10
544.802
 20
136.861
 11
544.968
 21
136.217
  0
LINE
  8
0
 10
544.968
 20
136.217
 11
545.123
 21
135.571
  0
LINE
  8
0
 10
545.123
 20
135.571
 11
545.267
 21
134.921
  0
LINE
  8
0
 10
545.267
 20
134.921
 11
545.4
 21
134.27
  0
LINE
  8
0
 10
545.4
 20
134.27
 11
545.521
 21
133.616
  0
LINE
  8
0
 10
545.521
 20
133.616
 11
545.631
 21
132.96
  0
LINE
  8
0
 10
545.631
 20
132.96
 11
545.729
 21
132.302
  0
LINE
  8
0
 10
545.729
 20
132.302
 11
545.816
 21
131.643
  0
LINE
  8
0
 10
545.816
 20
131.643
 11
545.891
 21
130.983
  0
LINE
  8
0
 10
545.891
 20
130.983
 11
558.8
 21
1
  0
LINE
  8
0
 10
558.8
 20
1
 11
558.8
 21
0
  0
LINE
  8
0
 10
558.8
 20
0
 11
971.55
 21
0
  0
LINE
  8
0
 10
971.55
 20
0
 11
971.55
 21
38.1
  0
LINE
  8
0
 10
971.55
 20
38.1
 11
990.6
 21
38.1
  0
LINE
  8
0
 10
990.6
 20
38.1
 11
990.6
 21
0
  0
LINE
  8
0
 10
990.6
 20
0
 11
1016
 21
0
  0
LINE
  8
0
 10
1016
 20
0
 11
1016
 21
63.5
  0
LINE
  8
0
 10
1016
 20
63.5
 11
971.55
 21
63.5
  0
LINE
  8
0
 10
971.55
 20
63.5
 11
971.55
 21
88.9
  0
LINE
  8
0
 10
971.55
 20
88.9
 11
731.52
 21
88.9
  0
LINE
  8
0
 10
731.52
 20
88.9
 11
731.52
 21
640.08
  0
LINE
  8
0
 10
731.52
 20
640.08
 11
971.55
 21
640.08
  0
LINE
  8
0
 10
971.55
 20
640.08
 11
971.55
 21
678.18
  0
LINE
  8
0
 10
971.55
 20
678.18
 11
990.6
 21
678.18
  0
LINE
  8
0
 10
990.6
 20
678.18
 11
990.6
 21
640.08
  0
LINE
  8
0
 10
990.6
 20
640.08
 11
1016
 21
640.08
  0
LINE
  8
0
 10
1016
 20
640.08
 11
1016
 21
703.58
  0
LINE
  8
0
 10
1016
 20
703.58
 11
971.55
 21
703.58
  0
LINE
  8
0
 10
971.55
 20
703.58
 11
971.55
 21
787.4
  0
LINE
  8
0
 10
971.55
 20
787.4
 11
44.45
 21
787.4
  0
LINE
  8
0
 10
44.45
 20
787.4
 11
44.45
 21
703.58
  0
LINE
  8
0
 10
44.45
 20
703.58
 11
0
 21
703.58
  0
LINE
  8
0
 10
0
 20
703.58
 11
0
 21
640.08
  0
LINE
  8
0
 10
0
 20
640.08
 11
25.4
 21
640.08
  0
LINE
  8
0
 10
25.4
 20
640.08
 11
25.4
 21
678.18
  0
LINE
  8
0
 10
25.4
 20
678.18
 11
44.45
 21
678.18
  0
LINE
  8
0
 10
44.45
 20
678.18
 11
44.45
 21
640.08
  0
LINE
  8
0
 10
44.45
 20
640.08
 11
284.48
 21
640.08
  0
LINE
  8
0
 10
284.48
 20
640.08
 11
284.48
 21
88.9
  0
LINE
  8
0
 10
284.48
 20
88.9
 11
44.45
 21
88.9
  0
LINE
  8
0
 10
44.45
 20
88.9
 11
44.45
 21
63.5
  0
LINE
  8
0
 10
44.45
 20
63.5
 11
0
 21
63.5
  0
LINE
  8
0
 10
0
 20
63.5
 11
0
 21
0
  0
LINE
  8
0
 10
0
 20
0
 11
25.4
 21
0
  0
LINE
  8
0
 10
25.4
 20
0
 11
25.4
 21
38.1
  0
LINE
  8
0
 10
335.28
 20
660.4
 11
335.28
 21
711.2
  0
LINE
  8
0
 10
335.28
 20
711.2
 11
411.48
 21
711.2
  0
LINE
  8
0
 10
411.48
 20
711.2
 11
411.48
 21
660.4
  0
LINE
  8
0
 10
411.48
 20
660.4
 11
335.28
 21
660.4
  0
LINE
  8
0
 10
604.52
 20
660.4
 11
604.52
 21
711.2
  0
LINE
  8
0
 10
604.52
 20
711.2
 11
680.72
 21
711.2
  0
LINE
  8
0
 10
680.72
 20
711.2
 11
680.72
 21
660.4
  0
LINE
  8
0
 10
680.72
 20
660.4
 11
604.52
 21
660.4
  0
LINE
  8
0
 10
604.52
 20
558.8
 11
604.52
 21
609.6
  0
LINE
  8
0
 10
604.52
 20
609.6
 11
680.72
 21
609.6
  0
LINE
  8
0
 10
680.72
 20
609.6
 11
680.72
 21
558.8
  0
LINE
  8
0
 10
680.72
 20
558.8
 11
604.52
 21
558.8
  0
LINE
  8
0
 10
335.28
 20
558.8
 11
335.28
 21
609.6
  0
LINE
  8
0
 10
335.28
 20
609.6
 11
411.48
 21
609.6
  0
LINE
  8
0
 10
411.48
 20
609.6
 11
411.48
 21
558.8
  0
LINE
  8
0
 10
411.48
 20
558.8
 11
335.28
 21
558.8
  0
LINE
  8
0
 10
604.52
 20
457.2
 11
604.52
 21
508
  0
LINE
  8
0
 10
604.52
 20
508
 11
680.72
 21
508
  0
LINE
  8
0
 10
680.72
 20
508
 11
680.72
 21
457.2
  0
LINE
  8
0
 10
680.72
 20
457.2
 11
604.52
 21
457.2
  0
LINE
  8
0
 10
335.28
 20
457.2
 11
335.28
 21
508
  0
LINE
  8
0
 10
335.28
 20
508
 11
411.48
 21
508
  0
LINE
  8
0
 10
411.48
 20
508
 11
411.48
 21
457.2
  0
LINE
  8
0
 10
411.48
 20
457.2
 11
335.28
 21
457.2
  0
LINE
  8
0
 10
604.52
 20
355.6
 11
604.52
 21
406.4
  0
LINE
  8
0
 10
604.52
 20
406.4
 11
680.72
 21
406.4
  0
LINE
  8
0
 10
680.72
 20
406.4
 11
680.72
 21
355.6
  0
LINE
  8
0
 10
680.72
 20
355.6
 11
604.52
 21
355.6
  0
LINE
  8
0
 10
335.28
 20
355.6
 11
335.28
 21
406.4
  0
LINE
  8
0
 10
335.28
 20
406.4
 11
411.48
 21
406.4
  0
LINE
  8
0
 10
411.48
 20
406.4
 11
411.48
 21
355.6
  0
LINE
  8
0
 10
411.48
 20
355.6
 11
335.28
 21
355.6
  0
LINE
  8
0
 10
604.52
 20
254
 11
604.52
 21
304.8
  0
LINE
  8
0
 10
604.52
 20
304.8
 11
680.72
 21
304.8
  0
LINE
  8
0
 10
680.72
 20
304.8
 11
680.72
 21
254
  0
LINE
  8
0
 10
680.72
 20
254
 11
604.52
 21
254
  0
LINE
  8
0
 10
335.28
 20
254
 11
335.28
 21
304.8
  0
LINE
  8
0
 10
335.28
 20
304.8
 11
411.48
 21
304.8
  0
LINE
  8
0
 10
411.48
 20
304.8
 11
411.48
 21
254
  0
LINE
  8
0
 10
411.48
 20
254
 11
335.28
 21
254
  0
LINE
  8
0
 10
335.28
 20
152.4
 11
335.28
 21
203.2
  0
LINE
  8
0
 10
335.28
 20
203.2
 11
411.48
 21
203.2
  0
LINE
  8
0
 10
411.48
 20
203.2
 11
411.48
 21
152.4
  0
LINE
  8
0
 10
411.48
 20
152.4
 11
335.28
 21
152.4
  0
LINE
  8
0
 10
604.52
 20
152.4
 11
604.52
 21
203.2
  0
LINE
  8
0
 10
604.52
 20
203.2
 11
680.72
 21
203.2
  0
LINE
  8
0
 10
680.72
 20
203.2
 11
680.72
 21
152.4
  0
LINE
  8
0
 10
680.72
 20
152.4
 11
604.52
 21
152.4
  0
LINE
  8
0
 10
335.28
 20
50.8
 11
335.28
 21
101.6
  0
LINE
  8
0
 10
335.28
 20
101.6
 11
411.48
 21
101.6
  0
LINE
  8
0
 10
411.48
 20
101.6
 11
411.48
 21
50.8
  0
LINE
  8
0
 10
411.48
 20
50.8
 11
335.28
 21
50.8
  0
LINE
  8
0
 10
604.52
 20
50.8
 11
604.52
 21
101.6
  0
LINE
  8
0
 10
604.52
 20
101.6
 11
680.72
 21
101.6
  0
LINE
  8
0
 10
680.72
 20
101.6
 11
680.72
 21
50.8
  0
LINE
  8
0
 10
680.72
 20
50.8
 11
604.52
 21
50.8
  0
ENDSEC
  0
SECTION
  2
OBJECTS
  0
DICTIONARY
  0
ENDSEC
  0
EOF
