  0
SECTION
  2
BLOCKS
  0
ENDSEC
  0
SECTION
  2
ENTITIES
  0
LINE
  8
0
 10
438.785
 20
2531.05
 11
457.2
 21
2531.05
  0
LINE
  8
0
 10
457.2
 20
2531.05
 11
457.2
 21
2640.26
  0
LINE
  8
0
 10
457.2
 20
2640.26
 11
438.785
 21
2640.26
  0
LINE
  8
0
 10
438.785
 20
2640.26
 11
438.785
 21
2676.45
  0
LINE
  8
0
 10
438.785
 20
2676.45
 11
342.9
 21
2676.45
  0
LINE
  8
0
 10
342.9
 20
2676.45
 11
342.9
 21
2694.86
  0
LINE
  8
0
 10
342.9
 20
2694.86
 11
114.3
 21
2694.86
  0
LINE
  8
0
 10
114.3
 20
2694.86
 11
114.3
 21
2676.45
  0
LINE
  8
0
 10
114.3
 20
2676.45
 11
18.415
 21
2676.45
  0
LINE
  8
0
 10
18.415
 20
2676.45
 11
18.415
 21
2640.26
  0
LINE
  8
0
 10
18.415
 20
2640.26
 11
0
 21
2640.26
  0
LINE
  8
0
 10
0
 20
2640.26
 11
0
 21
2531.05
  0
LINE
  8
0
 10
0
 20
2531.05
 11
18.415
 21
2531.05
  0
LINE
  8
0
 10
18.415
 20
2531.05
 11
18.415
 21
2476.44
  0
LINE
  8
0
 10
18.415
 20
2476.44
 11
438.785
 21
2476.44
  0
LINE
  8
0
 10
438.785
 20
2476.44
 11
438.785
 21
2531.05
  0
LINE
  8
0
 10
438.785
 20
2268.33
 11
457.2
 21
2268.33
  0
LINE
  8
0
 10
457.2
 20
2268.33
 11
457.2
 21
2382.94
  0
LINE
  8
0
 10
457.2
 20
2382.94
 11
438.785
 21
2382.94
  0
LINE
  8
0
 10
438.785
 20
2382.94
 11
438.785
 21
2421.83
  0
LINE
  8
0
 10
438.785
 20
2421.83
 11
342.9
 21
2421.83
  0
LINE
  8
0
 10
342.9
 20
2421.83
 11
342.9
 21
2440.25
  0
LINE
  8
0
 10
342.9
 20
2440.25
 11
114.3
 21
2440.25
  0
LINE
  8
0
 10
114.3
 20
2440.25
 11
114.3
 21
2421.83
  0
LINE
  8
0
 10
114.3
 20
2421.83
 11
18.415
 21
2421.83
  0
LINE
  8
0
 10
18.415
 20
2421.83
 11
18.415
 21
2382.94
  0
LINE
  8
0
 10
18.415
 20
2382.94
 11
0
 21
2382.94
  0
LINE
  8
0
 10
0
 20
2382.94
 11
0
 21
2268.33
  0
LINE
  8
0
 10
0
 20
2268.33
 11
18.415
 21
2268.33
  0
LINE
  8
0
 10
18.415
 20
2268.33
 11
18.415
 21
2211.03
  0
LINE
  8
0
 10
18.415
 20
2211.03
 11
438.785
 21
2211.03
  0
LINE
  8
0
 10
438.785
 20
2211.03
 11
438.785
 21
2268.33
  0
LINE
  8
0
 10
438.785
 20
1994.82
 11
457.2
 21
1994.82
  0
LINE
  8
0
 10
457.2
 20
1994.82
 11
457.2
 21
2114.83
  0
LINE
  8
0
 10
457.2
 20
2114.83
 11
438.785
 21
2114.83
  0
LINE
  8
0
 10
438.785
 20
2114.83
 11
438.785
 21
2156.42
  0
LINE
  8
0
 10
438.785
 20
2156.42
 11
342.9
 21
2156.42
  0
LINE
  8
0
 10
342.9
 20
2156.42
 11
342.9
 21
2174.83
  0
LINE
  8
0
 10
342.9
 20
2174.83
 11
114.3
 21
2174.83
  0
LINE
  8
0
 10
114.3
 20
2174.83
 11
114.3
 21
2156.42
  0
LINE
  8
0
 10
114.3
 20
2156.42
 11
18.415
 21
2156.42
  0
LINE
  8
0
 10
18.415
 20
2156.42
 11
18.415
 21
2114.83
  0
LINE
  8
0
 10
18.415
 20
2114.83
 11
0
 21
2114.83
  0
LINE
  8
0
 10
0
 20
2114.83
 11
0
 21
1994.82
  0
LINE
  8
0
 10
0
 20
1994.82
 11
18.415
 21
1994.82
  0
LINE
  8
0
 10
18.415
 20
1994.82
 11
18.415
 21
1934.82
  0
LINE
  8
0
 10
18.415
 20
1934.82
 11
438.785
 21
1934.82
  0
LINE
  8
0
 10
438.785
 20
1934.82
 11
438.785
 21
1994.82
  0
LINE
  8
0
 10
438.785
 20
1710.51
 11
457.2
 21
1710.51
  0
LINE
  8
0
 10
457.2
 20
1710.51
 11
457.2
 21
1835.92
  0
LINE
  8
0
 10
457.2
 20
1835.92
 11
438.785
 21
1835.92
  0
LINE
  8
0
 10
438.785
 20
1835.92
 11
438.785
 21
1880.21
  0
LINE
  8
0
 10
438.785
 20
1880.21
 11
342.9
 21
1880.21
  0
LINE
  8
0
 10
342.9
 20
1880.21
 11
342.9
 21
1898.62
  0
LINE
  8
0
 10
342.9
 20
1898.62
 11
114.3
 21
1898.62
  0
LINE
  8
0
 10
114.3
 20
1898.62
 11
114.3
 21
1880.21
  0
LINE
  8
0
 10
114.3
 20
1880.21
 11
18.415
 21
1880.21
  0
LINE
  8
0
 10
18.415
 20
1880.21
 11
18.415
 21
1835.92
  0
LINE
  8
0
 10
18.415
 20
1835.92
 11
0
 21
1835.92
  0
LINE
  8
0
 10
0
 20
1835.92
 11
0
 21
1710.51
  0
LINE
  8
0
 10
0
 20
1710.51
 11
18.415
 21
1710.51
  0
LINE
  8
0
 10
18.415
 20
1710.51
 11
18.415
 21
1647.81
  0
LINE
  8
0
 10
18.415
 20
1647.81
 11
438.785
 21
1647.81
  0
LINE
  8
0
 10
438.785
 20
1647.81
 11
438.785
 21
1710.51
  0
LINE
  8
0
 10
438.785
 20
1415.41
 11
457.2
 21
1415.41
  0
LINE
  8
0
 10
457.2
 20
1415.41
 11
457.2
 21
1546.21
  0
LINE
  8
0
 10
457.2
 20
1546.21
 11
438.785
 21
1546.21
  0
LINE
  8
0
 10
438.785
 20
1546.21
 11
438.785
 21
1593.2
  0
LINE
  8
0
 10
438.785
 20
1593.2
 11
342.9
 21
1593.2
  0
LINE
  8
0
 10
342.9
 20
1593.2
 11
342.9
 21
1611.61
  0
LINE
  8
0
 10
342.9
 20
1611.61
 11
114.3
 21
1611.61
  0
LINE
  8
0
 10
114.3
 20
1611.61
 11
114.3
 21
1593.2
  0
LINE
  8
0
 10
114.3
 20
1593.2
 11
18.415
 21
1593.2
  0
LINE
  8
0
 10
18.415
 20
1593.2
 11
18.415
 21
1546.21
  0
LINE
  8
0
 10
18.415
 20
1546.21
 11
0
 21
1546.21
  0
LINE
  8
0
 10
0
 20
1546.21
 11
0
 21
1415.41
  0
LINE
  8
0
 10
0
 20
1415.41
 11
18.415
 21
1415.41
  0
LINE
  8
0
 10
18.415
 20
1415.41
 11
18.415
 21
1350
  0
LINE
  8
0
 10
18.415
 20
1350
 11
438.785
 21
1350
  0
LINE
  8
0
 10
438.785
 20
1350
 11
438.785
 21
1415.41
  0
LINE
  8
0
 10
438.785
 20
1109.5
 11
457.2
 21
1109.5
  0
LINE
  8
0
 10
457.2
 20
1109.5
 11
457.2
 21
1245.7
  0
LINE
  8
0
 10
457.2
 20
1245.7
 11
438.785
 21
1245.7
  0
LINE
  8
0
 10
438.785
 20
1245.7
 11
438.785
 21
1295.39
  0
LINE
  8
0
 10
438.785
 20
1295.39
 11
342.9
 21
1295.39
  0
LINE
  8
0
 10
342.9
 20
1295.39
 11
342.9
 21
1313.81
  0
LINE
  8
0
 10
342.9
 20
1313.81
 11
114.3
 21
1313.81
  0
LINE
  8
0
 10
114.3
 20
1313.81
 11
114.3
 21
1295.39
  0
LINE
  8
0
 10
114.3
 20
1295.39
 11
18.415
 21
1295.39
  0
LINE
  8
0
 10
18.415
 20
1295.39
 11
18.415
 21
1245.7
  0
LINE
  8
0
 10
18.415
 20
1245.7
 11
0
 21
1245.7
  0
LINE
  8
0
 10
0
 20
1245.7
 11
0
 21
1109.5
  0
LINE
  8
0
 10
0
 20
1109.5
 11
18.415
 21
1109.5
  0
LINE
  8
0
 10
18.415
 20
1109.5
 11
18.415
 21
1041.4
  0
LINE
  8
0
 10
18.415
 20
1041.4
 11
438.785
 21
1041.4
  0
LINE
  8
0
 10
438.785
 20
1041.4
 11
438.785
 21
1109.5
  0
LINE
  8
0
 10
438.785
 20
792.799
 11
457.2
 21
792.799
  0
LINE
  8
0
 10
457.2
 20
792.799
 11
457.2
 21
934.401
  0
LINE
  8
0
 10
457.2
 20
934.401
 11
438.785
 21
934.401
  0
LINE
  8
0
 10
438.785
 20
934.401
 11
438.785
 21
986.787
  0
LINE
  8
0
 10
438.785
 20
986.787
 11
342.9
 21
986.787
  0
LINE
  8
0
 10
342.9
 20
986.787
 11
342.9
 21
1005.2
  0
LINE
  8
0
 10
342.9
 20
1005.2
 11
114.3
 21
1005.2
  0
LINE
  8
0
 10
114.3
 20
1005.2
 11
114.3
 21
986.787
  0
LINE
  8
0
 10
114.3
 20
986.787
 11
18.415
 21
986.787
  0
LINE
  8
0
 10
18.415
 20
986.787
 11
18.415
 21
934.401
  0
LINE
  8
0
 10
18.415
 20
934.401
 11
0
 21
934.401
  0
LINE
  8
0
 10
0
 20
934.401
 11
0
 21
792.799
  0
LINE
  8
0
 10
0
 20
792.799
 11
18.415
 21
792.799
  0
LINE
  8
0
 10
18.415
 20
792.799
 11
18.415
 21
721.998
  0
LINE
  8
0
 10
18.415
 20
721.998
 11
438.785
 21
721.998
  0
LINE
  8
0
 10
438.785
 20
721.998
 11
438.785
 21
792.799
  0
LINE
  8
0
 10
438.785
 20
465.298
 11
457.2
 21
465.298
  0
LINE
  8
0
 10
457.2
 20
465.298
 11
457.2
 21
612.299
  0
LINE
  8
0
 10
457.2
 20
612.299
 11
438.785
 21
612.299
  0
LINE
  8
0
 10
438.785
 20
612.299
 11
438.785
 21
667.385
  0
LINE
  8
0
 10
438.785
 20
667.385
 11
342.9
 21
667.385
  0
LINE
  8
0
 10
342.9
 20
667.385
 11
342.9
 21
685.8
  0
LINE
  8
0
 10
342.9
 20
685.8
 11
114.3
 21
685.8
  0
LINE
  8
0
 10
114.3
 20
685.8
 11
114.3
 21
667.385
  0
LINE
  8
0
 10
114.3
 20
667.385
 11
18.415
 21
667.385
  0
LINE
  8
0
 10
18.415
 20
667.385
 11
18.415
 21
612.299
  0
LINE
  8
0
 10
18.415
 20
612.299
 11
0
 21
612.299
  0
LINE
  8
0
 10
0
 20
612.299
 11
0
 21
465.298
  0
LINE
  8
0
 10
0
 20
465.298
 11
18.415
 21
465.298
  0
LINE
  8
0
 10
18.415
 20
465.298
 11
18.415
 21
391.798
  0
LINE
  8
0
 10
18.415
 20
391.798
 11
438.785
 21
391.798
  0
LINE
  8
0
 10
438.785
 20
391.798
 11
438.785
 21
465.298
  0
LINE
  8
0
 10
438.785
 20
127
 11
457.2
 21
127
  0
LINE
  8
0
 10
457.2
 20
127
 11
457.2
 21
279.4
  0
LINE
  8
0
 10
457.2
 20
279.4
 11
438.785
 21
279.4
  0
LINE
  8
0
 10
438.785
 20
279.4
 11
438.785
 21
337.185
  0
LINE
  8
0
 10
438.785
 20
337.185
 11
342.9
 21
337.185
  0
LINE
  8
0
 10
342.9
 20
337.185
 11
342.9
 21
355.6
  0
LINE
  8
0
 10
342.9
 20
355.6
 11
114.3
 21
355.6
  0
LINE
  8
0
 10
114.3
 20
355.6
 11
114.3
 21
337.185
  0
LINE
  8
0
 10
114.3
 20
337.185
 11
18.415
 21
337.185
  0
LINE
  8
0
 10
18.415
 20
337.185
 11
18.415
 21
279.4
  0
LINE
  8
0
 10
18.415
 20
279.4
 11
0
 21
279.4
  0
LINE
  8
0
 10
0
 20
279.4
 11
0
 21
127
  0
LINE
  8
0
 10
0
 20
127
 11
18.415
 21
127
  0
LINE
  8
0
 10
18.415
 20
127
 11
18.415
 21
50.8
  0
LINE
  8
0
 10
18.415
 20
50.8
 11
438.785
 21
50.8
  0
LINE
  8
0
 10
438.785
 20
50.8
 11
438.785
 21
127
  0
ENDSEC
  0
SECTION
  2
OBJECTS
  0
DICTIONARY
  0
ENDSEC
  0
EOF
