  0
SECTION
  2
BLOCKS
  0
ENDSEC
  0
SECTION
  2
ENTITIES
  0
LINE
  8
0
 10
771.5
 20
69.215
 11
1000.1
 21
69.215
  0
LINE
  8
0
 10
1000.1
 20
69.215
 11
1000.1
 21
50.8
  0
LINE
  8
0
 10
1000.1
 20
50.8
 11
1095.98
 21
50.8
  0
LINE
  8
0
 10
1095.98
 20
50.8
 11
1095.98
 21
240.877
  0
LINE
  8
0
 10
1095.98
 20
240.877
 11
1114.4
 21
240.877
  0
LINE
  8
0
 10
1114.4
 20
240.877
 11
1114.4
 21
621.03
  0
LINE
  8
0
 10
1114.4
 20
621.03
 11
1095.98
 21
621.03
  0
LINE
  8
0
 10
1095.98
 20
621.03
 11
1095.98
 21
1761.49
  0
LINE
  8
0
 10
1095.98
 20
1761.49
 11
1114.4
 21
1761.49
  0
LINE
  8
0
 10
1114.4
 20
1761.49
 11
1114.4
 21
2141.64
  0
LINE
  8
0
 10
1114.4
 20
2141.64
 11
1095.98
 21
2141.64
  0
LINE
  8
0
 10
1095.98
 20
2141.64
 11
1095.98
 21
2331.72
  0
LINE
  8
0
 10
1095.98
 20
2331.72
 11
1000.1
 21
2331.72
  0
LINE
  8
0
 10
1000.1
 20
2331.72
 11
1000.1
 21
2313.3
  0
LINE
  8
0
 10
1000.1
 20
2313.3
 11
771.5
 21
2313.3
  0
LINE
  8
0
 10
771.5
 20
2313.3
 11
771.5
 21
2331.72
  0
LINE
  8
0
 10
771.5
 20
2331.72
 11
675.615
 21
2331.72
  0
LINE
  8
0
 10
675.615
 20
2331.72
 11
675.615
 21
2141.64
  0
LINE
  8
0
 10
675.615
 20
2141.64
 11
657.2
 21
2141.64
  0
LINE
  8
0
 10
657.2
 20
2141.64
 11
657.2
 21
1761.49
  0
LINE
  8
0
 10
657.2
 20
1761.49
 11
675.615
 21
1761.49
  0
LINE
  8
0
 10
675.615
 20
1761.49
 11
675.615
 21
621.03
  0
LINE
  8
0
 10
675.615
 20
621.03
 11
657.2
 21
621.03
  0
LINE
  8
0
 10
657.2
 20
621.03
 11
657.2
 21
240.877
  0
LINE
  8
0
 10
657.2
 20
240.877
 11
675.615
 21
240.877
  0
LINE
  8
0
 10
675.615
 20
240.877
 11
675.615
 21
50.8
  0
LINE
  8
0
 10
675.615
 20
50.8
 11
771.5
 21
50.8
  0
LINE
  8
0
 10
771.5
 20
50.8
 11
771.5
 21
69.215
  0
LINE
  8
0
 10
771.5
 20
1990.09
 11
771.5
 21
2008.51
  0
LINE
  8
0
 10
771.5
 20
2008.51
 11
1000.1
 21
2008.51
  0
LINE
  8
0
 10
1000.1
 20
2008.51
 11
1000.1
 21
1990.09
  0
LINE
  8
0
 10
1000.1
 20
1990.09
 11
771.5
 21
1990.09
  0
LINE
  8
0
 10
771.5
 20
1666.88
 11
771.5
 21
1685.29
  0
LINE
  8
0
 10
771.5
 20
1685.29
 11
1000.1
 21
1685.29
  0
LINE
  8
0
 10
1000.1
 20
1685.29
 11
1000.1
 21
1666.88
  0
LINE
  8
0
 10
1000.1
 20
1666.88
 11
771.5
 21
1666.88
  0
LINE
  8
0
 10
771.5
 20
1343.66
 11
771.5
 21
1362.07
  0
LINE
  8
0
 10
771.5
 20
1362.07
 11
1000.1
 21
1362.07
  0
LINE
  8
0
 10
1000.1
 20
1362.07
 11
1000.1
 21
1343.66
  0
LINE
  8
0
 10
1000.1
 20
1343.66
 11
771.5
 21
1343.66
  0
LINE
  8
0
 10
771.5
 20
1020.45
 11
771.5
 21
1038.86
  0
LINE
  8
0
 10
771.5
 20
1038.86
 11
1000.1
 21
1038.86
  0
LINE
  8
0
 10
1000.1
 20
1038.86
 11
1000.1
 21
1020.45
  0
LINE
  8
0
 10
1000.1
 20
1020.45
 11
771.5
 21
1020.45
  0
LINE
  8
0
 10
771.5
 20
697.23
 11
771.5
 21
715.645
  0
LINE
  8
0
 10
771.5
 20
715.645
 11
1000.1
 21
715.645
  0
LINE
  8
0
 10
1000.1
 20
715.645
 11
1000.1
 21
697.23
  0
LINE
  8
0
 10
1000.1
 20
697.23
 11
771.5
 21
697.23
  0
LINE
  8
0
 10
771.5
 20
374.015
 11
771.5
 21
392.43
  0
LINE
  8
0
 10
771.5
 20
392.43
 11
1000.1
 21
392.43
  0
LINE
  8
0
 10
1000.1
 20
392.43
 11
1000.1
 21
374.015
  0
LINE
  8
0
 10
1000.1
 20
374.015
 11
771.5
 21
374.015
  0
LINE
  8
0
 10
104.55
 20
69.215
 11
219.311
 21
69.215
  0
LINE
  8
0
 10
219.311
 20
69.215
 11
219.311
 21
50.8
  0
LINE
  8
0
 10
219.311
 20
50.8
 11
276
 21
50.8
  0
LINE
  8
0
 10
276
 20
50.8
 11
352.2
 21
2313.3
  0
LINE
  8
0
 10
352.2
 20
2313.3
 11
352.2
 21
2331.72
  0
LINE
  8
0
 10
352.2
 20
2331.72
 11
276
 21
2331.72
  0
LINE
  8
0
 10
276
 20
2331.72
 11
276
 21
2313.3
  0
LINE
  8
0
 10
276
 20
2313.3
 11
123.6
 21
2313.3
  0
LINE
  8
0
 10
123.6
 20
2313.3
 11
123.6
 21
2331.72
  0
LINE
  8
0
 10
123.6
 20
2331.72
 11
47.4
 21
2331.72
  0
LINE
  8
0
 10
47.4
 20
2331.72
 11
47.4
 21
2141.64
  0
LINE
  8
0
 10
47.4
 20
2141.64
 11
65.815
 21
2141.64
  0
LINE
  8
0
 10
65.815
 20
2141.64
 11
65.815
 21
1761.49
  0
LINE
  8
0
 10
65.815
 20
1761.49
 11
47.4
 21
1761.49
  0
LINE
  8
0
 10
47.4
 20
1761.49
 11
47.4
 21
621.03
  0
LINE
  8
0
 10
47.4
 20
621.03
 11
65.815
 21
621.03
  0
LINE
  8
0
 10
65.815
 20
621.03
 11
65.815
 21
240.877
  0
LINE
  8
0
 10
65.815
 20
240.877
 11
47.4
 21
240.877
  0
LINE
  8
0
 10
47.4
 20
240.877
 11
47.4
 21
50.8
  0
LINE
  8
0
 10
47.4
 20
50.8
 11
104.55
 21
50.8
  0
LINE
  8
0
 10
104.55
 20
50.8
 11
104.55
 21
69.215
  0
LINE
  8
0
 10
120.901
 20
1990.09
 11
120.901
 21
2008.51
  0
LINE
  8
0
 10
120.901
 20
2008.51
 11
267.902
 21
2008.51
  0
LINE
  8
0
 10
267.902
 20
2008.51
 11
267.902
 21
1990.09
  0
LINE
  8
0
 10
267.902
 20
1990.09
 11
120.901
 21
1990.09
  0
LINE
  8
0
 10
118.201
 20
1666.88
 11
118.201
 21
1685.29
  0
LINE
  8
0
 10
118.201
 20
1685.29
 11
259.803
 21
1685.29
  0
LINE
  8
0
 10
259.803
 20
1685.29
 11
259.803
 21
1666.88
  0
LINE
  8
0
 10
259.803
 20
1666.88
 11
118.201
 21
1666.88
  0
LINE
  8
0
 10
115.502
 20
1343.66
 11
115.502
 21
1362.07
  0
LINE
  8
0
 10
115.502
 20
1362.07
 11
251.705
 21
1362.07
  0
LINE
  8
0
 10
251.705
 20
1362.07
 11
251.705
 21
1343.66
  0
LINE
  8
0
 10
251.705
 20
1343.66
 11
115.502
 21
1343.66
  0
LINE
  8
0
 10
112.802
 20
1020.45
 11
112.802
 21
1038.86
  0
LINE
  8
0
 10
112.802
 20
1038.86
 11
243.607
 21
1038.86
  0
LINE
  8
0
 10
243.607
 20
1038.86
 11
243.607
 21
1020.45
  0
LINE
  8
0
 10
243.607
 20
1020.45
 11
112.802
 21
1020.45
  0
LINE
  8
0
 10
110.103
 20
697.23
 11
110.103
 21
715.645
  0
LINE
  8
0
 10
110.103
 20
715.645
 11
235.508
 21
715.645
  0
LINE
  8
0
 10
235.508
 20
715.645
 11
235.508
 21
697.23
  0
LINE
  8
0
 10
235.508
 20
697.23
 11
110.103
 21
697.23
  0
LINE
  8
0
 10
107.403
 20
374.015
 11
107.403
 21
392.43
  0
LINE
  8
0
 10
107.403
 20
392.43
 11
227.41
 21
392.43
  0
LINE
  8
0
 10
227.41
 20
392.43
 11
227.41
 21
374.015
  0
LINE
  8
0
 10
227.41
 20
374.015
 11
107.403
 21
374.015
  0
LINE
  8
0
 10
403.4
 20
69.215
 11
555.8
 21
69.215
  0
LINE
  8
0
 10
555.8
 20
69.215
 11
555.8
 21
50.8
  0
LINE
  8
0
 10
555.8
 20
50.8
 11
632
 21
50.8
  0
LINE
  8
0
 10
632
 20
50.8
 11
632
 21
240.877
  0
LINE
  8
0
 10
632
 20
240.877
 11
613.585
 21
240.877
  0
LINE
  8
0
 10
613.585
 20
240.877
 11
613.585
 21
621.03
  0
LINE
  8
0
 10
613.585
 20
621.03
 11
632
 21
621.03
  0
LINE
  8
0
 10
632
 20
621.03
 11
632
 21
1761.49
  0
LINE
  8
0
 10
632
 20
1761.49
 11
613.585
 21
1761.49
  0
LINE
  8
0
 10
613.585
 20
1761.49
 11
613.585
 21
2141.64
  0
LINE
  8
0
 10
613.585
 20
2141.64
 11
632
 21
2141.64
  0
LINE
  8
0
 10
632
 20
2141.64
 11
632
 21
2331.72
  0
LINE
  8
0
 10
632
 20
2331.72
 11
574.85
 21
2331.72
  0
LINE
  8
0
 10
574.85
 20
2331.72
 11
574.85
 21
2313.3
  0
LINE
  8
0
 10
574.85
 20
2313.3
 11
460.089
 21
2313.3
  0
LINE
  8
0
 10
460.089
 20
2313.3
 11
460.089
 21
2331.72
  0
LINE
  8
0
 10
460.089
 20
2331.72
 11
403.4
 21
2331.72
  0
LINE
  8
0
 10
403.4
 20
2331.72
 11
327.2
 21
69.215
  0
LINE
  8
0
 10
327.2
 20
69.215
 11
327.2
 21
50.8
  0
LINE
  8
0
 10
327.2
 20
50.8
 11
403.4
 21
50.8
  0
LINE
  8
0
 10
403.4
 20
50.8
 11
403.4
 21
69.215
  0
LINE
  8
0
 10
451.99
 20
1990.09
 11
451.99
 21
2008.51
  0
LINE
  8
0
 10
451.99
 20
2008.51
 11
571.997
 21
2008.51
  0
LINE
  8
0
 10
571.997
 20
2008.51
 11
571.997
 21
1990.09
  0
LINE
  8
0
 10
571.997
 20
1990.09
 11
451.99
 21
1990.09
  0
LINE
  8
0
 10
443.892
 20
1666.88
 11
443.892
 21
1685.29
  0
LINE
  8
0
 10
443.892
 20
1685.29
 11
569.297
 21
1685.29
  0
LINE
  8
0
 10
569.297
 20
1685.29
 11
569.297
 21
1666.88
  0
LINE
  8
0
 10
569.297
 20
1666.88
 11
443.892
 21
1666.88
  0
LINE
  8
0
 10
435.793
 20
1343.66
 11
435.793
 21
1362.07
  0
LINE
  8
0
 10
435.793
 20
1362.07
 11
566.598
 21
1362.07
  0
LINE
  8
0
 10
566.598
 20
1362.07
 11
566.598
 21
1343.66
  0
LINE
  8
0
 10
566.598
 20
1343.66
 11
435.793
 21
1343.66
  0
LINE
  8
0
 10
427.695
 20
1020.45
 11
427.695
 21
1038.86
  0
LINE
  8
0
 10
427.695
 20
1038.86
 11
563.898
 21
1038.86
  0
LINE
  8
0
 10
563.898
 20
1038.86
 11
563.898
 21
1020.45
  0
LINE
  8
0
 10
563.898
 20
1020.45
 11
427.695
 21
1020.45
  0
LINE
  8
0
 10
419.597
 20
697.23
 11
419.597
 21
715.645
  0
LINE
  8
0
 10
419.597
 20
715.645
 11
561.199
 21
715.645
  0
LINE
  8
0
 10
561.199
 20
715.645
 11
561.199
 21
697.23
  0
LINE
  8
0
 10
561.199
 20
697.23
 11
419.597
 21
697.23
  0
LINE
  8
0
 10
411.498
 20
374.015
 11
411.498
 21
392.43
  0
LINE
  8
0
 10
411.498
 20
392.43
 11
558.499
 21
392.43
  0
LINE
  8
0
 10
558.499
 20
392.43
 11
558.499
 21
374.015
  0
LINE
  8
0
 10
558.499
 20
374.015
 11
411.498
 21
374.015
  0
ENDSEC
  0
SECTION
  2
OBJECTS
  0
DICTIONARY
  0
ENDSEC
  0
EOF
